<svg width="18" height="19" viewBox="0 0 18 19" fill="none" xmlns="http://www.w3.org/2000/svg">
<path d="M6.73242 9.27148C6.73242 9.87288 6.97133 10.4497 7.39658 10.8749C7.82183 11.3002 8.3986 11.5391 9 11.5391C9.6014 11.5391 10.1782 11.3002 10.6034 10.8749C11.0287 10.4497 11.2676 9.87288 11.2676 9.27148C11.2676 8.67009 11.0287 8.09332 10.6034 7.66806C10.1782 7.24281 9.6014 7.00391 9 7.00391C8.3986 7.00391 7.82183 7.24281 7.39658 7.66806C6.97133 8.09332 6.73242 8.67009 6.73242 9.27148Z" fill="#FFCE00"/>
<path d="M15.5551 15.095H2.44531C2.00762 15.095 1.6543 14.7417 1.6543 14.304V4.6958C1.6543 4.25811 2.00762 3.90479 2.44531 3.90479H15.5533C15.991 3.90479 16.3443 4.25811 16.3443 4.6958V14.3022C16.3461 14.7399 15.991 15.095 15.5551 15.095ZM3.23633 13.513H14.7623V5.48682H3.23633V13.513Z" fill="white"/>
<path d="M9.0002 10.2909C7.56934 10.2909 6.15781 10.0466 4.91504 9.58428C3.68281 9.12549 2.62988 8.45752 1.87051 7.6542C1.73164 7.50654 1.6543 7.31318 1.6543 7.11104V4.6958C1.6543 4.25811 2.00762 3.90479 2.44531 3.90479H15.5533C15.991 3.90479 16.3443 4.25811 16.3443 4.6958V7.11104C16.3443 7.31318 16.267 7.50654 16.1281 7.6542C15.3688 8.45752 14.3158 9.12549 13.0836 9.58428C11.8426 10.0466 10.4311 10.2909 9.0002 10.2909ZM3.23633 6.78232C3.81113 7.3167 4.57578 7.77021 5.46699 8.10068C6.53398 8.49795 7.75566 8.70713 9.0002 8.70713C10.2447 8.70713 11.4664 8.49795 12.5334 8.10068C13.4246 7.76846 14.1875 7.3167 14.7641 6.78232V5.48682H3.23633V6.78232Z" fill="white"/>
</svg>
