<svg width="18" height="19" viewBox="0 0 18 19" fill="none" xmlns="http://www.w3.org/2000/svg">
<path d="M7.80469 11.0327C7.80469 12.1609 8.25287 13.2429 9.05063 14.0407C9.84839 14.8384 10.9304 15.2866 12.0586 15.2866C13.1868 15.2866 14.2688 14.8384 15.0666 14.0407C15.8643 13.2429 16.3125 12.1609 16.3125 11.0327C16.3125 9.90451 15.8643 8.82251 15.0666 8.02475C14.2688 7.22699 13.1868 6.77881 12.0586 6.77881C10.9304 6.77881 9.84839 7.22699 9.05063 8.02475C8.25287 8.82251 7.80469 9.90451 7.80469 11.0327Z" fill="#FFCE00"/>
<path d="M8.99961 17.3169C8.68145 17.3169 8.36328 17.1956 8.1207 16.953L2.69434 11.5284C1.78203 10.6161 1.2793 9.40146 1.2793 8.11123C1.2793 6.821 1.78203 5.60635 2.69434 4.69404C3.43438 3.954 4.42051 3.54443 5.46816 3.54443C6.51582 3.54443 7.5002 3.95225 8.24199 4.69404L8.99961 5.45166L9.75723 4.69404C10.4973 3.954 11.4834 3.54619 12.5311 3.54619C13.5787 3.54619 14.5631 3.954 15.3049 4.69404C16.2172 5.60635 16.7199 6.821 16.7199 8.11123C16.7199 9.40146 16.2172 10.6161 15.3049 11.5284L9.87852 16.953C9.63594 17.1956 9.31777 17.3169 8.99961 17.3169ZM5.46816 5.12822C4.84238 5.12822 4.25527 5.3708 3.81406 5.81377C3.20059 6.42725 2.86133 7.24463 2.86133 8.11299C2.86133 8.98135 3.19883 9.79697 3.81406 10.4122L8.99961 15.5978L14.1852 10.4122C15.4525 9.14482 15.4525 7.08291 14.1852 5.81553C13.2729 4.90322 11.7875 4.90322 10.8752 5.81553L9.55859 7.13213C9.24922 7.4415 8.74824 7.4415 8.44063 7.13213L7.12402 5.81553C6.68105 5.3708 6.09395 5.12822 5.46816 5.12822Z" fill="white"/>
</svg>
