<svg width="18" height="19" viewBox="0 0 18 19" fill="none" xmlns="http://www.w3.org/2000/svg">
<path d="M15.2883 13.7398H2.71289C2.16094 13.7398 1.71094 13.2898 1.71094 12.7379V3.5498C1.71094 2.99785 2.16094 2.54785 2.71289 2.54785H15.2883C15.8402 2.54785 16.2902 2.99785 16.2902 3.5498V12.7361C16.2902 13.2898 15.8402 13.7398 15.2883 13.7398ZM3.29297 12.1578H14.7082V4.12988H3.29297V12.1578Z" fill="white"/>
<path d="M12.2391 10.6952H5.75977C5.64375 10.6952 5.54883 10.6003 5.54883 10.4843V5.80322C5.54883 5.68721 5.64375 5.59229 5.75977 5.59229H12.2408C12.3568 5.59229 12.4518 5.68721 12.4518 5.80322V10.4843C12.45 10.6003 12.3551 10.6952 12.2391 10.6952Z" fill="#FFCE00"/>
<path d="M12.332 16.4521H5.66992C5.23223 16.4521 4.87891 16.0988 4.87891 15.6611C4.87891 15.2234 5.23223 14.8701 5.66992 14.8701H12.332C12.7697 14.8701 13.123 15.2234 13.123 15.6611C13.123 16.0988 12.7697 16.4521 12.332 16.4521Z" fill="white"/>
</svg>
