<svg width="150" height="150" viewBox="0 0 150 150" fill="none" xmlns="http://www.w3.org/2000/svg">
<path d="M106.231 35.5085L107.911 35.4571L119.564 35.3885L121.106 35.5256L121.603 35.7484L121.809 35.9198L121.997 36.1597L122.117 36.4339L122.255 37.0166L122.34 37.7706L122.46 45.5853L123.42 45.1226L123.934 44.9512L124.791 44.8313L125.511 44.9341L126.128 45.2254L126.693 45.8252L126.967 46.2879L127.207 46.8877L127.396 47.5218L127.516 48.2073L127.584 49.6469L127.413 51.532L126.916 53.777L126.625 54.8395L125.853 57.1359L127.327 55.2165L128.167 54.274L129.058 53.4L129.984 52.5602L130.977 51.7719L132.006 51.035L133.085 50.3838L134.182 49.8182L135.33 49.3384L136.496 48.9614L137.678 48.6872L138.552 48.5672L139.409 48.5501L140.249 48.6358L140.866 48.7557L141.448 48.9614L142.031 49.2356L142.597 49.5955L143.231 50.1096L143.813 50.6922L144.31 51.3606L144.756 52.0804L145.133 52.8173L145.441 53.6056L145.716 54.4111L146.076 56.0048L146.195 57.0331L146.23 58.0442L146.178 59.0553L146.058 60.0664L145.836 61.0432L145.527 62.0201L145.15 62.9455L144.67 63.8366L144.105 64.7106L143.334 65.6703L142.511 66.5786L140.797 68.3095L141.774 68.0696L142.717 67.9153L143.351 67.8811L144.585 68.001L145.184 68.1553L145.801 68.378L146.418 68.6865L147.429 69.3891L147.892 69.8176L148.698 70.7773L149.332 71.8569L149.554 72.4225L149.743 73.0051L149.931 73.9134L150 74.8046L149.966 75.6786L149.829 76.5526L149.623 77.4095L149.332 78.2492L148.595 79.8944L147.361 81.968L145.51 84.6928L143.454 87.3663L141.294 89.8512L140.249 90.948L141.705 90.5196L142.442 90.4167L143.162 90.4339L143.642 90.5024L144.636 90.8452L145.596 91.445L146.418 92.2504L147.104 93.2101L147.498 93.9813L147.806 94.7525L148.166 96.312L148.269 97.8544L148.201 98.8826L148.046 99.8937L147.789 100.888L147.464 101.882L147.07 102.841L146.607 103.801L145.938 104.984L145.202 106.149L144.396 107.28L143.522 108.394L142.271 109.799L140.951 111.119L139.546 112.387L138.09 113.587L136.599 114.666L133.394 116.774L132.811 117.031L132.657 116.997L132.606 116.825L132.64 116.637L133.034 116.311L134.336 115.523L136.479 114.066L137.97 112.918L139.512 111.633L141.517 109.748L142.477 108.737L143.402 107.691L144.259 106.594L145.047 105.481L145.767 104.315L146.384 103.116L146.898 101.899L147.207 100.973L147.447 100.031L147.618 99.0711L147.704 98.0943L147.686 97.1003L147.584 96.1064L147.258 94.8039L146.727 93.6043L146.35 93.0388L145.921 92.5246L145.476 92.0791L144.979 91.7192L144.447 91.4107L143.865 91.1708L143.265 91.0165L142.648 90.948L142.185 90.9823L141.277 91.1879L140.626 91.4621L139.443 92.1819L137.798 93.3472L137.627 93.3644L137.541 93.1759L137.627 92.9531L137.832 92.696L139.409 91.0508L143.145 86.7151L145.184 84.1445L147.035 81.4882L147.841 80.1514L148.509 78.9004L149.16 77.2381L149.469 75.9528L149.52 74.8731L149.486 74.3247L149.297 73.2622L149.126 72.7481L148.509 71.4799L148.012 70.7601L147.207 69.9033L146.264 69.2006L145.75 68.9264L145.202 68.7037L144.482 68.498L143.728 68.3952H142.991L142.237 68.498L141.517 68.7037L139.82 69.4406L138.929 69.7148L138.724 69.6633L138.621 69.5434L138.775 69.252L139.066 68.9264L140.454 67.7954L142.391 65.9103L143.556 64.5221L144.053 63.8024L144.533 62.9626L144.944 62.0886L145.253 61.1803L145.493 60.2378L145.647 59.2952L145.716 58.3184L145.699 57.3416L145.613 56.3819L145.441 55.4393L145.202 54.4967L144.859 53.5885L144.465 52.7145L144.036 51.9776L143.162 50.8122L142.322 50.0582L141.843 49.7325L141.346 49.4755L140.797 49.2698L140.163 49.1327L139.529 49.0642H138.861L137.524 49.2356L135.862 49.7154L134.919 50.0924L133.171 50.9664L132.297 51.5148L130.652 52.7145L129.504 53.7427L128.39 54.8224L127.293 56.0562L126.265 57.3587L125.202 58.8668L124.997 59.0724L124.722 59.2267L124.551 59.141L124.585 58.7811L124.722 58.267L125.494 56.3476L125.973 54.8738L126.487 53.0229L126.71 52.0118L127.002 49.9382V48.3101L126.779 47.1791L126.59 46.665L126.333 46.2194L126.008 45.8424L125.699 45.6196L125.356 45.4653L124.997 45.3968L124.602 45.3797L124.037 45.4825L123.488 45.671L122.46 46.2194L122.7 66.4244L122.82 86.6465L123.043 110.228L122.974 112.353L122.82 112.884L122.632 113.158L122.443 113.261L121.483 113.415L119.29 113.518L115.502 113.484L80.3879 113.587L80.405 115.814L81.8788 116.466L83.2841 117.185L84.6208 117.939L85.9061 118.762L87.14 119.636L88.3054 120.561L89.6421 121.744L90.9274 123.012L92.1613 124.383L93.3438 125.84L94.4748 127.399L95.9658 129.627L96.2914 130.21L96.6341 131.032V131.307L96.5313 131.358L96.2571 131.169L96.0515 130.912L94.6805 128.702L93.7036 127.279L91.5272 124.52L90.4133 123.303L89.2651 122.172L88.0826 121.127L86.8315 120.167L85.512 119.242L82.5815 117.46L81.9303 118.282L81.2276 119.036L80.4736 119.705L79.6681 120.287L78.7941 120.801L77.8858 121.213L76.9261 121.538L75.8979 121.761L75.0582 121.864H74.2356L73.4301 121.778L72.6246 121.624L71.8535 121.401L70.3454 120.75L69.6256 120.339L68.3403 119.413L67.2435 118.402L66.7294 117.837L65.4098 118.625L62.9591 120.304L61.8109 121.213L60.7142 122.172L59.6688 123.201L58.6919 124.28L57.7322 125.428L55.95 127.913L54.2534 130.741L53.705 131.427L53.4479 131.512L53.5336 130.947L54.0306 129.85L55.5044 127.485L56.5326 126.063L57.8865 124.315L59.823 122.189L61.9652 120.27L64.2787 118.573L66.7465 117.1L69.3343 115.883L69.2829 113.706L67.0721 113.569L48.6151 113.604L44.0737 113.672L41.8801 113.604L28.5644 113.621L27.9989 113.501L27.8275 113.398L27.6218 113.124L27.5019 112.815L27.3819 111.821L27.4333 109.713L27.1591 69.9547L27.0734 63.0483L27.0906 60.7519L27.0392 58.5754L26.9706 44.8827L26.8849 42.1235L26.6621 42.055L26.4222 42.0721L25.1369 42.8433L24.7256 43.2203L24.3829 43.6831L24.0744 44.2657L23.646 45.551L23.4746 46.3222L23.3203 47.4704L23.2175 48.7214V51.2064L23.3546 53.5199L23.5431 55.3708L23.9202 57.7357V58.1984L23.7488 58.2841L23.5603 58.1642L23.1661 57.65L22.3607 56.0905L21.5723 54.7024L20.6983 53.3485L19.3787 51.6862L18.6418 50.915L17.8535 50.1953L17.0138 49.5612L16.0884 48.9785L15.3857 48.6015L13.8948 48.0531L13.1407 47.8646L12.3524 47.7446L11.5812 47.6932L10.7929 47.7275L10.0046 47.8303L8.87352 48.1216L7.86241 48.5329L6.93699 49.0985L6.37146 49.5612L5.8402 50.0582L5.1547 50.915L4.77768 51.532L4.36638 52.3888L4.05791 53.2286L3.83512 54.0683L3.71516 54.908L3.68089 55.7649L3.7323 56.6218L3.85226 57.4615L4.04077 58.3013L4.40066 59.3809L4.84623 60.4434L5.41176 61.4888L6.04585 62.4828L6.74848 63.4253L7.51966 64.2993L9.13058 65.7903L9.42191 66.2187L9.06203 66.3044L8.53077 66.2359L7.51966 66.0131L6.90272 65.9445L6.25149 65.9788L4.94905 66.2701L3.76657 66.7671L2.73833 67.4869L1.8986 68.3952L1.45302 69.0807L1.09314 69.8176L0.818939 70.623L0.68184 71.24L0.630427 72.5082L0.68184 73.1594L0.870351 74.0162L1.12741 74.8731L1.4873 75.73L1.8986 76.5697L2.94398 78.2149L3.83512 79.3803L4.81195 80.4942L5.8402 81.5396L6.86844 82.4821L8.8221 84.0759L11.2556 85.6525L11.7526 86.1324L11.4613 86.2009L11.05 86.1838L9.73039 85.8925L8.70214 85.841L7.34829 85.9782L6.67993 86.1324L5.39463 86.5951L4.79482 86.9036L3.68089 87.6748L2.7726 88.583L2.0357 89.6284L1.4873 90.7938L1.16169 92.0105L1.09314 92.6617L1.076 93.4329L1.14455 94.2212L1.29879 95.061L1.53871 95.935L1.93287 97.0489L2.44699 98.1971L3.08108 99.3967L4.55489 101.693L5.39463 102.841L6.73134 104.487L8.13661 106.063L9.59329 107.537L10.9643 108.839L12.3524 110.039L14.9744 112.027L16.414 113.021L18.0078 113.929L18.3848 114.203L18.7275 114.58L18.7104 114.735L18.4876 114.82L17.8364 114.563L16.9624 114.083L15.043 112.798L13.0379 111.256L11.2385 109.748L9.90176 108.531L7.14264 105.755L5.82306 104.247L4.55489 102.67L3.76657 101.573L3.0468 100.442L2.39558 99.2939L1.81291 98.1114L1.33306 96.8947L0.956038 95.6608L0.68184 94.5811L0.561878 93.4843L0.596153 92.6789L0.68184 91.8906L0.853214 91.1365L1.09314 90.3996L1.40161 89.6798L1.77863 89.0115L2.24134 88.3602L2.7726 87.7604L3.44096 87.1606L4.10932 86.6637L4.79482 86.2695L5.53172 85.9439L6.30291 85.7039L7.87955 85.3955L9.59329 85.3098L8.53077 84.5729L6.55997 82.962L4.65772 81.1111L3.66375 80.0143L2.73833 78.8661L1.88146 77.6322L1.38447 76.7754L0.956038 75.9014L0.596153 75.0102L0.321955 74.0848L0.150581 73.1594L0.0820312 72.1997L0.0991684 71.617L0.184855 71.0343L0.476191 69.869L0.973175 68.7722L1.28165 68.2581L2.0357 67.3498L2.58409 66.8528L3.14963 66.4415L3.7323 66.133L4.34924 65.8931L5.65169 65.5675L6.66279 65.4647L7.74245 65.4304L6.61138 64.128L5.566 62.7913L4.93191 61.8487L4.38352 60.8547L3.92081 59.7922L3.62947 58.9353L3.40669 58.0613L3.26959 57.1702L3.20104 56.279V55.3879L3.30386 54.4967L3.4581 53.6056L3.71516 52.7487L4.04077 51.8919L4.40066 51.1892L4.81195 50.538L5.27466 49.9211L5.78878 49.3555L6.35432 48.8414L6.9884 48.3958L7.65676 48.0017L8.37653 47.6932L9.31909 47.4019L10.2445 47.2134L11.1357 47.1277L12.0268 47.1448L12.9179 47.2648L13.7748 47.4361L14.6317 47.7103L15.4543 48.0531L16.2597 48.4644L17.785 49.4412L18.5047 50.041L19.3959 50.8808L20.2185 51.789L20.9725 52.7487L22.8234 55.7992L23.0633 56.1248L23.0804 55.3708L22.8405 53.7598L22.6863 51.6691L22.652 49.2527L22.7205 48.0188L22.8576 46.8021L23.1832 45.2426L23.6802 43.8716L24.0058 43.2718L24.3829 42.7576L24.777 42.3463L25.2226 42.0379L25.6853 41.7979L26.1994 41.6437L26.8849 41.5066L26.9192 40.9582L26.8678 38.319L26.9706 36.9995L27.0392 36.6224L27.2619 36.194L27.7418 35.9198L28.0674 35.8341L29.2327 35.7313L31.4263 35.7656L32.2661 35.7313L32.2318 35.9712L32.2832 36.0226L32.0261 36.1769L32.3689 36.2283L31.632 36.3482L32.5403 36.4682L32.9002 36.5882L33.0715 36.9995L30.5695 36.9823L28.0674 37.0852L28.1874 42.5177L120.661 42.3806L120.729 40.307L120.712 38.9531L120.626 37.7706L120.472 37.068L120.267 36.9652L119.461 36.7938L117.747 36.691L111.527 36.7938L110.121 36.7424L109.693 36.5368L109.898 36.5882L109.59 36.3997L109.093 36.3654L108.99 36.2454H109.196L109.093 36.2111L109.367 36.0912L110.224 35.5771L106.231 35.5085ZM35.0766 89.4228L39.1896 89.457L55.0931 89.4056L60.1143 89.3542L62.5479 89.2685L62.942 88.3774L63.4733 87.4177L64.7586 85.4983L66.2324 83.7332L67.0207 82.962L67.7748 82.345L68.5117 81.8309L69.3343 81.3853L69.8998 81.1454L71.0651 80.8198L72.2819 80.7341L72.8988 80.7855L73.5158 80.9226L74.0299 81.1283L74.4926 81.3853L74.9039 81.6938L75.6922 82.5849L76.2235 82.3964L76.7719 82.3107H77.3888L78.0572 82.3793L79.3254 82.7563L79.9252 83.0305L81.279 83.8017L82.1359 84.3672L82.9585 85.0356L83.6954 85.7554L84.1581 86.2695L85.2035 87.8975L85.8033 89.1657L87.6199 89.0972L95.1775 89.1143L114.388 88.9943L114.457 82.8934L114.269 70.6745L114.251 55.3879L114.149 50.2981L34.134 50.5209L34.5625 63.4767L34.871 76.4498L35.0766 89.4228ZM28.2045 43.1347L28.8043 112.387L41.1604 112.421L62.4964 112.353L64.5872 112.387L66.0953 112.301L68.426 112.335L69.18 112.284L69.2829 111.376L69.3 110.485L68.923 110.296L68.1689 110.056L65.7525 109.868L64.81 109.696L63.7817 109.456L62.7706 109.131L61.7424 108.719L60.7656 108.24L59.8573 107.708L59.2917 107.297L58.3321 106.406L59.823 104.709L60.4914 103.818L61.0912 102.893L61.6224 101.916L62.0851 100.871L55.3673 100.939L53.1223 100.836L52.1455 100.716L51.46 100.545L51.0315 100.374L50.6031 100.099L50.1404 99.6367L49.849 99.0368L49.7805 98.677L49.7976 98.2999L49.8833 97.9572L50.2432 97.3917L50.4831 97.1517L50.9116 96.8604L51.8027 96.4662L53.2422 96.1749L56.2413 96.0378H58.1264L59.8401 96.1406L60.5599 96.2435L61.0226 96.3634L61.5367 96.5691L63.3876 97.7173L63.9703 97.9915L62.8563 96.0035L62.3765 94.7696L62.2051 94.0841L62.068 93.3815L61.9823 91.9762L62.0337 91.2565L62.1537 90.6053L62.3593 89.8855L61.948 89.8169L59.1546 89.8683L34.5625 89.9369L34.3397 78.0778L34.0655 66.2359L33.6371 52.2346L33.6542 50.4352L33.7399 50.1267L34.631 50.0239L38.9325 49.9553L50.963 49.9896L98.0737 49.7154L109.71 49.6811L112.246 49.6297H113.634L114.56 49.7325L114.697 49.9553L114.731 50.2295L114.783 51.5491L114.748 55.5593L114.783 66.7157L114.954 85.8582L114.92 89.4913L110.138 89.577L93.7036 89.6627L87.8941 89.6284L85.9404 89.697L86.4031 91.4278L86.5745 92.319L86.7116 94.1356L86.643 95.935H93.8579L96.0172 95.8664L97.1311 95.9521L97.5081 96.0721L98.0908 96.3634L98.4507 96.689L98.742 97.1003L99.0334 97.7687L99.0848 98.1286L99.0162 98.8141L98.8449 99.2939L98.5878 99.7566L98.2108 100.202L97.7138 100.494L97.2339 100.596L96.4285 100.699L94.4577 100.785L87.5685 100.699L87.2771 100.733L86.9344 100.853L86.763 101.179L87.0372 101.607L88.0826 102.876L90.6018 106.355L89.7106 107.023L88.7509 107.623L87.7227 108.171L86.6773 108.634L85.5977 109.028L84.518 109.336L81.776 109.713L80.8849 109.919L80.5421 110.056L80.3708 110.176L80.2679 110.553L80.3022 112.216L121.072 112.164L121.158 106.869L121.072 78.9004L120.986 66.8699L120.764 47.1448L120.798 44.9684L120.781 43.8201L120.678 42.9119L28.2045 43.1347ZM121.655 76.6725L121.638 77.3752L121.706 78.0607L121.86 78.1635H122.032L122.066 77.4437L121.963 76.9982L121.826 76.8096L121.655 76.6725ZM68.7859 118.985L69.797 119.705L70.8081 120.321L71.5278 120.664L72.2476 120.938L73.0017 121.161L73.7729 121.281L74.5783 121.315L75.418 121.264L76.1549 121.144L77.2346 120.836L77.9372 120.561L78.9312 120.064L79.8738 119.447L80.4564 118.985L82.2044 117.237L80.3193 116.38L79.7709 117.031L79.2054 117.58L78.5713 118.059L77.903 118.454L77.2003 118.779L76.4292 119.019L75.5894 119.19L74.6811 119.276L73.79 119.242L72.916 119.122L72.2648 118.951L71.6478 118.711L71.048 118.402L70.4825 118.008L70.0026 117.597L69.5742 117.117L69.2314 116.586L67.2949 117.562L68.2546 118.556L68.7859 118.985ZM63.6446 101.83L64.1759 101.933L64.4501 101.916L64.7072 101.83L64.3301 99.2254L64.1245 98.4199L63.9017 98.3513L63.559 98.4199L63.0963 98.677L62.8735 98.9512L62.685 99.2939L62.5993 99.6709V100.048L62.6507 100.425L62.8049 100.853L63.0277 101.23L63.3019 101.539L63.6446 101.83ZM84.7236 101.967L85.769 101.505L86.3003 100.648L86.4888 100.014L86.4374 99.3453L86.2146 98.8826L85.8719 98.5227L85.2206 98.1114L84.7236 101.967ZM121.946 58.764L121.929 57.4101L121.86 56.9474L121.74 56.519L121.535 56.1419L121.466 58.1813L121.62 58.6954L121.946 58.764ZM87.7398 100.202L95.3146 100.254L96.1543 100.219L96.9769 100.134L97.3196 100.031L97.6281 99.8766L97.9023 99.6538L98.1594 99.3453L98.3307 98.9854L98.4336 98.6084L98.4164 97.8715L98.3307 97.5288L98.1765 97.2374L97.9366 96.9804L97.5938 96.7404L97.1654 96.5348L96.737 96.432L96.2914 96.4148L89.7792 96.3805L86.5916 96.5177L85.6319 97.6144L85.7519 97.7515L86.1632 97.9743L86.7287 98.557L86.9515 99.0883L87.0201 99.7909L87.0886 99.9965L87.2257 100.202H87.7398ZM69.8312 116.397L70.4139 117.134L71.0651 117.648L71.7678 118.059L72.4704 118.368L73.0359 118.539L74.2184 118.693L74.8525 118.676L75.6408 118.591L76.4634 118.402L77.2517 118.128L78.0058 117.751L78.4685 117.46L79.2568 116.723L79.5824 116.243L79.8052 115.712L79.8566 115.026V112.747L79.7709 110.93L79.7538 110.776L79.6681 110.673L78.8284 111.084L77.2175 111.719L76.3949 111.941L75.5551 112.096L74.7154 112.147L73.8585 112.13L72.9845 112.01L72.0591 111.787L70.928 111.359L69.8312 110.81L69.9341 115.215L69.8312 116.397ZM84.895 94.941L80.3022 91.8734L79.1711 91.0337L78.1257 90.1425L77.4745 89.5085L76.8747 88.823L76.035 87.6576L75.5209 88.5488L75.0067 89.3028L74.4755 89.9026L73.8928 90.4681L73.293 90.948L72.6589 91.3593L71.6478 91.8906L67.9804 93.3644L64.7243 94.821L64.6558 96.0207L64.6729 97.4088L64.7757 98.8483L64.9814 100.391L65.2727 101.916L65.6497 103.424L66.2838 105.343L67.055 107.04L67.4834 107.777L67.9461 108.411L68.5288 109.062L69.1629 109.628L69.8312 110.125L70.5339 110.536L71.2879 110.879L72.0762 111.153L72.8988 111.359L73.7557 111.496L74.6469 111.53L76.0007 111.427L76.8919 111.239L77.7487 110.964L78.9826 110.416L80.1137 109.679L81.0563 108.857L81.5875 108.291L82.4615 107.057L82.9414 106.149L83.3355 105.223L83.644 104.229L84.1067 102.207L84.4494 99.5681L84.895 94.941ZM62.7364 97.9915L61.7424 97.3231L61.2283 97.066L60.6627 96.8604L60.2 96.7404L58.1264 96.5691L55.0759 96.6033L53.3108 96.7062L52.1283 96.9289L51.5628 97.1517L50.8944 97.563L50.6031 97.8544L50.3117 98.2999L50.2432 98.557V98.8312L50.3632 99.1225L50.5859 99.3796L50.8601 99.5852L51.5114 99.9451L52.334 100.219L52.7624 100.288L54.1334 100.356L62.1023 100.288L62.2565 99.1054L62.445 98.557L62.7364 97.9915Z" fill="#110E1A"/>
<path d="M38.924 76.9811L38.8555 75.4044V60.2207L38.9412 59.381L39.1297 59.5009L39.2154 59.3296L40.2436 59.2953L59.1804 59.3467L59.506 59.4152L59.7288 59.5181L59.8316 59.7751L59.8831 60.3749L60.0544 64.5051L60.2601 76.3813L60.123 76.7754L59.8659 76.8097L57.2096 76.9297L38.924 76.9811ZM39.5581 76.2956L39.798 75.8843L40.4492 74.4962L41.2547 72.9367L42.1287 71.4286L43.1227 69.9033L44.8021 67.7783L46.7044 65.8418L48.7952 64.1109L51.0744 62.6371L52.6682 61.7802L56.9868 59.9465L52.9595 59.878H39.4553L39.3525 62.0715L39.3696 70.5031L39.3182 73.5193L39.3867 75.8329L39.4724 76.347L39.5581 76.2956Z" fill="#15102C"/>
<path d="M38.924 76.9811L38.8555 75.4044V60.2207L38.9412 59.381L39.1297 59.5009L39.2154 59.3296L40.2436 59.2953L57.9123 59.381L56.6612 59.5523L56.5241 59.6723V59.758L56.8669 59.7751L56.9868 59.9465L52.9595 59.878H39.4553L39.3525 62.0715L39.3696 70.5031L39.3182 73.5193L39.3353 75.1131L39.4724 76.347L39.5581 76.2956L40.0379 76.4498L40.6378 76.844L40.9462 76.9468L41.289 76.9811L42.3001 76.9468L38.924 76.9811Z" fill="black"/>
<path d="M75.2863 76.6041H103.323L103.837 76.6383L104.351 76.7583L104.334 77.0325L103.666 77.1525L100.718 77.221L96.7766 77.1696L68.7741 77.1525L68.1743 77.1353L67.3346 77.0153L67.1289 76.844L67.8144 76.6897L70.9677 76.5869L75.2863 76.6041Z" fill="black"/>
<path d="M67.0586 65.4305L69.3379 65.3791L100.871 65.4305L103.15 65.3619L104.195 65.4648L104.281 65.7047V65.9617L102.824 65.996L71.7371 65.9446L68.0868 65.9789L67.6241 65.9617L67.1786 65.8246L67.0757 65.6361L67.0586 65.4305Z" fill="black"/>
<path d="M74.4806 71.0343L103.768 70.9829L104.111 71.0172L104.42 71.1543L104.437 71.3085L104.283 71.497L102.912 71.5484L69.4079 71.5656L67.2658 71.4799L67.043 71.3428L67.0944 71.2228L68.1398 71.0686L69.7507 71L74.4806 71.0343Z" fill="black"/>
<path d="M80.2364 59.5695L84.1951 59.5009L94.2376 59.5352L102.395 59.4838L103.783 59.5695L104.074 59.638L104.297 59.7751L104.04 59.9465L103.766 60.015L102.121 60.1007L67.2291 60.0664L67.092 59.9636L67.0234 59.7922L67.2976 59.638L68.5315 59.5523L71.3592 59.5866L80.2364 59.5695Z" fill="black"/>
<path d="M109.614 94.8554L111.465 94.804L112.459 94.8554L113.453 94.9753L114.43 95.1638L115.338 95.4552L115.92 95.6951L116.435 96.0036L116.88 96.3463L117.377 96.9633L117.531 97.3231L117.583 97.7002L117.549 98.0943L117.429 98.4371L116.966 99.0369L116.452 99.4311L115.835 99.7909L115.166 100.065L114.43 100.288L112.956 100.579L112.236 100.631L109.82 100.699L107.849 100.528L106.872 100.356L105.946 100.099L104.833 99.6196L104.027 99.0369L103.582 98.4542L103.41 97.8887L103.496 97.3231L103.787 96.809L104.507 96.1578L104.953 95.9007L105.689 95.5751L106.478 95.3352L108.106 95.0096L109.614 94.8554ZM110.848 100.219L113.213 99.9452L114.07 99.7909L114.892 99.551L115.646 99.2597L116.109 98.9855L116.503 98.6941L116.829 98.3343L117 98.0601L117.086 97.7859V97.4774L116.966 97.1689L116.743 96.8776L116.212 96.4663L115.629 96.1578L114.344 95.678L113.316 95.4552L112.27 95.3181L111.225 95.2667L110.248 95.3009L108.774 95.4552L107.095 95.7465L106.255 95.9693L105.518 96.2606L105.038 96.5177L104.661 96.7919L104.216 97.306L104.079 97.7344V97.9744L104.198 98.3L104.404 98.5913L104.678 98.8312L105.518 99.3282L106.135 99.5853L106.786 99.7909L107.814 100.014L108.843 100.151L110.848 100.219Z" fill="black"/>
<path d="M37.2934 96.6719L39.8298 96.5691L41.8348 96.6719L42.8117 96.7919L43.7714 96.9632L44.594 97.186L45.1081 97.3917L45.8621 97.8544L46.1363 98.1286L46.3591 98.4371L46.5134 98.7798L46.5819 99.174L46.5476 99.551L46.4448 99.9109L46.2563 100.254L46.0164 100.545L45.6222 100.888L45.2109 101.162L44.7482 101.368L44.0456 101.59L43.2915 101.693L40.1554 101.83H38.236L36.2481 101.693L35.2884 101.539L34.4486 101.333L33.9002 101.145L33.0605 100.665L32.5978 100.151L32.4607 99.8423L32.375 99.4824V99.1054L32.4264 98.7284L32.5635 98.3857L32.7692 98.06L33.0262 97.803L33.6774 97.3746L34.2601 97.1518L34.8771 96.9804L36.1452 96.7747L37.2934 96.6719ZM40.8066 101.282L42.0919 101.248L43.4458 101.093L44.097 100.956L44.7139 100.733L45.4508 100.305L45.8964 99.8423L46.0506 99.4824L46.0678 99.2597L45.9821 98.9341L45.8107 98.6427L45.3309 98.1629L44.4226 97.7002L43.8228 97.5116L42.8974 97.3231L41.8691 97.2032L40.8237 97.1346H38.8872L36.2481 97.306L34.8771 97.5288L34.2601 97.7344L33.5575 98.1286L33.0948 98.6084L32.9063 99.1397L32.9405 99.6538L33.1976 100.065L33.6946 100.442L34.5343 100.802L35.2712 101.008L36.0938 101.162L37.7904 101.316L39.4527 101.35L40.8066 101.282Z" fill="black"/>
<path d="M31.4263 35.7656L32.2661 35.7313L32.2318 35.9712L32.2832 36.0227L32.0261 36.1769L32.3689 36.2283L31.632 36.3483L32.5403 36.4682L32.9002 36.5882L33.0715 36.9995L30.5695 36.9824L28.0674 37.0852L28.1874 42.5177L120.661 42.3806L120.678 42.9119L28.2045 43.1347L28.8043 112.387L41.1604 112.421L63.5418 112.353L64.5872 112.387L64.3644 112.541L64.2102 112.558L62.7878 112.507L53.2765 112.49L33.9113 112.593L29.9868 112.541L28.9757 112.627L29.1642 112.901L29.4898 113.004L29.884 113.021L33.7742 112.918L36.4647 112.987H41.2975L44.6221 112.935L45.5304 113.004L45.6332 113.055L45.6161 113.244L45.0334 113.364L43.5768 113.329L44.6221 113.261L45.0163 113.175L44.1252 113.038L43.0284 113.021L40.9547 113.141L40.8862 113.227L41.6745 113.364L41.8801 113.604L40.989 113.621H28.5644L28.1702 113.569L27.8275 113.398L27.6218 113.124L27.5019 112.815L27.3819 111.821L27.4333 109.713L27.1591 69.9547L27.0734 63.0483L27.0906 60.7519L27.0392 58.5755L26.9706 44.8827L26.8849 42.1236L26.6621 42.055L26.4222 42.0722L25.1369 42.8433L24.7256 43.2204L24.3829 43.6831L24.0744 44.2657L23.646 45.5511L23.4746 46.3222L23.3203 47.4704L23.2175 48.7215V51.2064L23.3546 53.5199L23.5431 55.3708L23.9202 57.7357V58.1985L23.7488 58.2841L23.5603 58.1642L23.1661 57.6501L22.3607 56.0906L21.5723 54.7024L20.6983 53.3486L20.0471 52.4917L18.6418 50.9151L17.8535 50.1953L17.0138 49.5612L16.0884 48.9785L15.3857 48.6015L13.8948 48.0531L13.1407 47.8646L12.3524 47.7446L11.5812 47.6932L10.7929 47.7275L10.0046 47.8303L9.21626 48.0017L8.53077 48.2416L7.86241 48.533L6.93699 49.0985L6.09726 49.8011L5.37749 50.6237L4.77768 51.532L4.36638 52.3889L4.05791 53.2286L3.83512 54.0683L3.71516 54.9081L3.68089 55.7649L3.7323 56.6218L3.85226 57.4615L4.04077 58.3013L4.40066 59.3809L4.84623 60.4434L5.41176 61.4888L6.04585 62.4828L6.74848 63.4254L7.51966 64.2994L9.13058 65.7903L9.42191 66.2188L9.06203 66.3044L8.53077 66.2359L7.51966 66.0131L6.90272 65.9446L6.2515 65.9788L5.58314 66.0988L4.94905 66.2702L3.76657 66.7671L2.73833 67.4869L1.8986 68.3952L1.45302 69.0807L1.09314 69.8176L0.818939 70.6231L0.68184 71.24L0.630428 72.5082L0.68184 73.1594L0.870351 74.0163L1.12741 74.8731L1.4873 75.73L1.8986 76.5697L2.94398 78.2149L3.83512 79.3803L4.81195 80.4942L5.8402 81.5396L6.86844 82.4821L8.82211 84.0759L11.2556 85.6526L11.7526 86.1324L11.4613 86.201L11.05 86.1838L9.38764 85.8582L8.03379 85.8754L7.34829 85.9782L6.67993 86.1324L5.39463 86.5951L4.21214 87.2635L3.68089 87.6748L2.7726 88.5831L2.0357 89.6284L1.74436 90.194L1.29879 91.3936L1.16169 92.0105L1.09314 92.6618L1.076 93.4329L1.14455 94.2213L1.29879 95.061L1.53871 95.935L1.93287 97.0489L2.44699 98.1971L3.08108 99.3968L4.55489 101.693L5.39463 102.841L6.73134 104.487L8.13661 106.063L9.59329 107.537L10.9643 108.839L12.3524 110.039L14.9744 112.027L16.414 113.021L18.0078 113.929L18.3848 114.203L18.7275 114.58L18.7104 114.735L18.4876 114.82L17.8364 114.563L16.9624 114.084L16.0541 113.501L14.049 112.044L11.2385 109.748L9.90176 108.531L8.53077 107.194L7.14264 105.755L5.82306 104.247L4.55489 102.67L3.76657 101.573L3.0468 100.442L2.39558 99.2939L1.81291 98.1115L1.33306 96.8947L0.956038 95.6608L0.68184 94.5811L0.561878 93.4844L0.596153 92.6789L0.68184 91.8906L0.853214 91.1365L1.09314 90.3996L1.40161 89.6799L1.77863 89.0115L2.24134 88.3603L2.7726 87.7605L3.44096 87.1607L4.10932 86.6637L4.79482 86.2695L5.53172 85.9439L6.30291 85.704L7.09123 85.5155L8.71928 85.327L9.59329 85.3098L7.51966 83.8017L5.61741 82.088L3.66375 80.0144L2.73833 78.8662L1.88146 77.6323L1.38447 76.7754L0.956038 75.9014L0.596153 75.0102L0.321955 74.0848L0.150581 73.1594L0.0820312 72.1997L0.184855 71.0344L0.476191 69.869L0.973176 68.7722L1.64153 67.7783L2.0357 67.3498L2.58409 66.8528L3.14963 66.4415L3.7323 66.1331L5.00046 65.7046L5.65169 65.5675L6.66279 65.4647L7.74245 65.4304L6.61138 64.128L5.566 62.7913L4.93191 61.8487L4.38352 60.8547L3.92081 59.7922L3.62947 58.9354L3.40669 58.0614L3.26959 57.1702L3.20104 56.2791V55.3879L3.30386 54.4968L3.4581 53.6056L3.71516 52.7488L4.04077 51.8919L4.40066 51.1893L4.81195 50.538L5.27466 49.9211L5.78878 49.3556L6.35432 48.8414L6.9884 48.3959L7.65676 48.0017L8.37653 47.6932L9.31909 47.4019L10.2445 47.2134L11.1357 47.1277L12.0268 47.1448L12.9179 47.2648L13.7748 47.4362L14.6317 47.7104L15.4543 48.0531L17.0309 48.9271L18.5047 50.0411L19.3959 50.8808L20.2185 51.7891L20.9725 52.7488L22.8234 55.7992L23.0633 56.1248L23.0804 55.3708L22.8405 53.7599L22.6863 51.6691L22.652 49.2527L22.7205 48.0188L22.8576 46.8021L22.9947 45.9966L23.3889 44.5399L23.6802 43.8716L24.0058 43.2718L24.3829 42.7577L24.777 42.3464L25.2226 42.0379L25.6853 41.798L26.1994 41.6437L26.8849 41.5066L26.9021 37.5993L27.0392 36.6225L27.2619 36.194L27.7418 35.9198L28.6158 35.7485L29.2328 35.7313L31.4263 35.7656Z" fill="black"/>
<path d="M26.9766 44.8827L27.285 44.9341L27.5078 45.1226L27.6449 45.9109L27.6621 54.1369L27.8677 63.511L27.8163 63.8367L27.6792 63.9566L27.5421 63.9223L27.4393 63.8367L27.3707 63.3739L27.4393 62.2257V60.4777L27.405 58.7126L27.3193 57.4615L27.3536 57.0502L27.4564 56.9646L27.5592 57.2045L27.6449 55.6107L27.5764 54.3083L27.4564 54.0683L27.3707 54.154L27.4735 54.0855L27.3364 54.1026L27.2165 54.4796L27.1308 55.0794L27.2336 59.5866L27.1993 60.2549L27.0965 60.7519L27.0451 58.5755L26.9766 44.8827Z" fill="#110E1A"/>
<path d="M26.9766 44.8827L27.285 44.9341L27.5078 45.1226L27.4735 47.0249L27.525 48.7043L27.405 48.7557L27.2679 48.6529L26.9937 48.2588L26.9766 44.8827Z" fill="url(#paint0_linear_374_7596)"/>
<path d="M28.5648 113.621L28.1535 113.295L27.965 113.055L27.7422 112.541L27.7936 112.25L27.9307 112.164L28.2049 112.13L28.2563 112.473L28.3591 112.713L28.5991 112.935L28.9247 113.09L29.6273 113.175L30.3813 113.192L33.3975 113.09L39.9269 113.038L40.5781 113.141L40.4239 113.124L40.5095 113.158L40.0468 113.347L40.0983 113.604L28.5648 113.621Z" fill="url(#paint1_linear_374_7596)"/>
<path d="M34.566 89.9369L34.3433 78.0778L34.0691 66.2359L33.6406 52.2346L33.6578 50.4352L33.7434 50.1267L34.6346 50.0239L38.9361 49.9554L50.9665 49.9896L98.0772 49.7154L109.714 49.6812L112.25 49.6298H113.638L114.563 49.7326L114.701 49.9554L114.735 50.2296L114.786 51.5492L114.752 55.5593L114.786 66.7157L114.958 85.8582L114.923 89.4914L110.142 89.577L93.7072 89.6627L87.8976 89.6285L85.944 89.697L86.1839 90.5539L86.1325 90.6738L85.9611 90.7595L85.5841 90.451L85.824 90.0569L85.704 89.9712L85.4813 90.0912L85.2413 90.1426L85.1042 89.9369L85.0528 89.7827V89.0801L84.573 88.1718L84.83 88.4288L85.0014 88.6859L85.4984 89.9026L85.6184 89.697L85.6355 89.817L86.1839 89.5428L87.9148 89.4571L92.6104 89.5085L105.892 89.4228L111.307 89.4742L113.964 89.4057L114.409 89.3543L114.632 89.2857L114.803 89.1486L114.872 87.6748L114.838 83.5618L114.718 80.9569L114.632 81.0255L114.529 81.6253L114.495 82.2251L114.598 84.6415L114.581 89.1657L86.2867 89.2857L85.6698 89.2172L84.9843 87.9147L84.8129 87.3492L85.2071 87.8976L85.8069 89.1657L87.6234 89.0972L95.181 89.1143L114.392 88.9944L114.461 82.8935L114.272 70.6745L114.255 55.3879L114.152 50.2981L34.1376 50.5209L34.566 63.4768L34.8745 76.4498L35.0802 89.4228L39.1931 89.4571L55.0966 89.4057L60.1179 89.3543L61.5746 89.2857L61.5403 89.8341L59.1582 89.8684L34.566 89.9369Z" fill="black"/>
<path d="M76.7734 82.3108H77.3904L78.0587 82.3793L78.6928 82.5336L79.3269 82.7564L79.9267 83.0306L80.458 83.339L80.3037 83.3562L79.3098 83.2533L78.1958 83.0134L77.1333 82.6535L76.9448 82.5164L76.7734 82.3108Z" fill="black"/>
<path d="M75.5072 103.613L76.1242 103.561L76.724 103.613L76.8611 103.784L76.9296 104.041V104.367L76.7926 105.018L76.5869 105.583L76.3298 106.08L75.9871 106.526L75.73 106.783L75.0788 107.16L74.6332 107.263L74.2048 107.246L73.3651 107.006L72.8167 106.492L72.5767 106.2L72.1997 105.566L71.9427 104.864L71.8398 104.298L71.9084 103.972L72.0112 103.801L72.6796 103.63L73.6735 103.578L75.5072 103.613Z" fill="#110E1A"/>
<path d="M69.509 93.3816H70.503L71.0171 93.4501L71.4626 93.6044L71.7883 93.8272L71.9082 93.9814L72.011 94.3241L71.9082 94.6498L71.5997 94.7183L71.2913 94.7012L70.006 94.4098L69.5433 94.5127L68.1723 94.9925L67.641 94.9754L67.5039 94.8383L67.6067 94.4613L67.8467 94.1185L68.1209 93.8786L68.7721 93.5872L69.509 93.3816Z" fill="black"/>
<path d="M79.2808 93.3816L80.2747 93.5187L80.7546 93.6729L81.2002 93.9129L81.56 94.2213L81.68 94.4098L81.7657 94.6498L81.6971 94.804L81.56 94.9068L81.2858 94.9754L81.0288 94.9411L80.1034 94.684L78.4925 94.6669L78.0812 94.4784L78.0469 94.1699L78.3211 93.7758L78.6296 93.5872L79.2808 93.3816Z" fill="black"/>
<path d="M74.6493 96.5862L74.8379 96.9461V97.563L74.1866 99.7737L74.1352 100.185L74.1524 100.476L74.2723 100.751L74.4437 100.939L75.0949 101.419L75.2491 101.642V101.83L75.1635 102.019L74.6151 101.83L74.358 101.693L73.8953 101.213L73.6211 100.785L73.7239 99.3796L73.8782 98.6084L74.0838 97.8372L74.358 97.1346L74.6493 96.5862Z" fill="black"/>
<path d="M70.0228 96.0721L70.5369 96.2435L70.7426 96.5177L70.8283 96.8605V97.2032L70.7597 97.546L70.4341 98.1458L69.8857 97.9915L69.6458 97.7173L69.543 97.3574V96.9976L69.6458 96.672L70.0228 96.0721Z" fill="black"/>
<path d="M79.4137 96.0035L79.9107 96.055L80.0992 96.2606L80.202 96.5177L80.2363 96.8947L80.1677 97.2888L79.825 98.0086L79.3451 97.8372L79.208 97.7001L79.0538 97.3745L79.0195 96.8604L79.1052 96.5519L79.4137 96.0035Z" fill="black"/>
<path d="M85.9613 105.001L86.1156 105.104L86.2013 105.326L86.1498 105.549L86.0299 105.755L85.9099 105.875L85.5158 105.995L85.3272 105.823L85.293 105.566L85.3787 105.309L85.6186 105.069L85.9613 105.001Z" fill="#15102C"/>
<path d="M121.555 58.9696L121.692 59.1067L121.777 59.2952L121.846 60.3063L121.743 61.5916L121.692 61.5574L121.555 60.6148V58.9696Z" fill="#15102C"/>
<path d="M113.947 38.2162L115.37 38.1648L116.124 38.2333L116.467 38.3362L116.706 38.4733L116.912 38.7132L117.032 38.9703L117.084 39.5186L116.946 40.0156L116.809 40.2213L116.587 40.3412L116.312 40.4098L113.656 40.4441L112.868 40.3584L112.542 40.2556L112.285 40.1013L112.011 39.69L111.977 39.1759L112.131 38.7817L112.525 38.4219L113.056 38.2505L113.947 38.2162Z" fill="black"/>
<path d="M104.607 38.3876L106.834 38.3019L107.383 38.319L107.914 38.3876L108.411 38.5761L108.634 38.7303L108.788 38.9531L108.857 39.2102V39.5358L108.788 39.8442L108.582 40.2555L108.154 40.4955L106.166 40.5812L105.121 40.5469L104.641 40.4955L104.092 40.2898L103.784 39.9642L103.698 39.7414L103.664 39.5015L103.715 39.2444L103.921 38.7989L104.075 38.6104L104.23 38.5075L104.607 38.3876Z" fill="black"/>
<path d="M32.2669 35.7314L36.5855 35.7657L49.5585 35.6286L89.9514 35.5771L102.17 35.4915L109.265 35.5257L110.225 35.5771L109.368 36.0913L109.094 36.2112L109.197 36.2455H108.991L109.094 36.3655L109.591 36.3997L109.899 36.5883L109.694 36.5368L110.036 36.7253L105.015 36.811L33.0724 36.9995L32.901 36.5883L32.5411 36.4683L31.6328 36.3483L32.3697 36.2284L32.027 36.177L32.284 36.0227L32.2326 35.9713L32.2669 35.7314Z" fill="url(#paint2_linear_374_7596)"/>
<path d="M80.8199 18.6111L81.0084 18.851L80.8027 19.5708L80.22 20.7875L79.466 22.1757L78.2835 24.1122L78.0093 23.838L77.9922 23.7523L78.0779 23.4267L78.3007 22.9468L79.6717 20.3591L80.3743 19.2109L80.8199 18.6111Z" fill="black"/>
<path d="M23.15 23.7351L23.3385 23.8208L23.4756 23.975L23.8526 24.6263L25.6177 28.1737L25.9091 28.8935L25.9433 29.082L25.9262 29.2876L25.6691 29.2705L25.5149 29.1505L24.9494 28.208L24.3153 27.0084L23.4413 25.0376L23.1328 24.0093L23.15 23.7351Z" fill="black"/>
<path d="M1.31855 37.5308L1.96977 37.8735L4.07767 39.2959L5.36298 40.3242L5.50008 40.4955L5.53435 40.684L5.4658 40.8897L4.88313 40.6155L2.79237 39.2445L1.84981 38.5419L1.33569 38.062L1.25 37.805L1.31855 37.5308Z" fill="black"/>
<path d="M142.843 31.3955L143.048 31.4298L143.202 31.5155L143.22 31.704L142.963 31.961L141.917 32.6294L139.038 34.1204L138.884 34.1375L138.73 34.0175L138.695 33.829L139.192 33.3663L140.101 32.8179L142.843 31.3955Z" fill="black"/>
<path d="M58.4195 18.1655L58.6594 18.2512L58.8479 18.4226L60.6473 20.8218L61.6242 22.2785L61.7099 22.5356L61.6927 22.8098L61.4185 22.7069L61.1443 22.467L60.5274 21.7472L59.859 20.8561L58.5052 18.851L58.4023 18.4226L58.4195 18.1655Z" fill="black"/>
<path d="M115.451 18.2683L115.691 18.5254L115.348 19.0738L113.806 20.8046L112.435 22.0385L112.246 21.7301L112.572 21.1645L113.257 20.3419L114.097 19.4679L114.885 18.7139L115.451 18.2683Z" fill="black"/>
<defs>
<linearGradient id="paint0_linear_374_7596" x1="156.784" y1="1384.02" x2="152.525" y2="1384.25" gradientUnits="userSpaceOnUse">
<stop stop-color="#2C1E31"/>
<stop offset="1" stop-color="#32353A"/>
</linearGradient>
<linearGradient id="paint1_linear_374_7596" x1="3574.42" y1="1200.38" x2="3574.04" y2="1218.18" gradientUnits="userSpaceOnUse">
<stop stop-color="#1A141D"/>
<stop offset="1" stop-color="#262929"/>
</linearGradient>
<linearGradient id="paint2_linear_374_7596" x1="38565.4" y1="441.175" x2="38565.3" y2="490.939" gradientUnits="userSpaceOnUse">
<stop stop-color="#111313"/>
<stop offset="1" stop-color="#16101E"/>
</linearGradient>
</defs>
</svg>
