<svg width="150" height="150" viewBox="0 0 150 150" fill="none" xmlns="http://www.w3.org/2000/svg">
<path d="M75.3439 68.5804L76.5745 68.6101L78.5909 68.788L80.1774 69.129L81.0522 69.4256L81.9121 69.8111L82.9945 70.4634L83.4986 70.8638L83.9434 71.2937L84.3289 71.7682L84.6699 72.302L84.922 72.8357L85.0702 73.325L85.1444 73.755L85.1592 74.185L85.0257 75.0153L84.0768 77.6841L84.8182 78.1585L87.3535 79.5078L88.1838 79.9971L88.9548 80.5308L89.4145 80.946L89.8148 81.3908L90.1706 81.8801L90.393 82.3397L90.5265 82.74L90.5858 83.1255L90.571 83.511L90.4227 84.2523L89.7407 85.9278L89.5479 86.6098L91.5199 88.5224L92.1129 89.2341L92.7653 90.272L93.1953 91.3692L93.3287 91.9474L93.4029 92.5405L93.4177 93.1336L93.3584 93.7711L93.2101 94.5124L92.9877 95.2241L92.6912 95.9062L92.3205 96.5585L91.9202 97.1664L91.4457 97.7595L90.9268 98.3081L89.8 99.2718L89.5924 100.221L90.2003 101.703L90.8675 103.156L93.6549 108.805L94.9448 111.637L96.0865 114.262L96.3979 115.166L96.6499 116.071L96.813 117.005L96.8723 117.805L96.8427 118.591L96.6647 119.629L96.2941 120.608L95.7307 121.512L94.9448 122.313L94.0701 122.906L93.4325 123.202L92.7801 123.454L92.0833 123.647L91.0306 123.869L89.9482 124.018L90.2448 128.006V129.578L90.0965 130.779L90.0668 131.431L90.4523 139.868L84.9516 139.912L58.0855 139.868L58.5748 135.731L58.9751 131.579L58.8269 130.112L58.99 128.14L59.2568 126.182L58.13 126.36L57.4628 126.375L56.8104 126.346L56.158 126.242L55.5205 126.079L54.9126 125.856L54.3195 125.56L53.7413 125.189L53.2668 124.804L52.822 124.359L52.0807 123.35L51.5321 122.209L51.1614 121.008L50.9539 119.585L50.939 118.784L50.9687 117.983L51.0576 117.168L51.28 116.115L51.5617 115.062L51.9324 114.024L52.8665 111.993L53.4003 110.985L54.275 109.532L55.2091 108.138L57.0773 105.529L56.3508 105.306L55.6688 105.01L55.0164 104.654L54.5568 104.343L53.7413 103.586L53.3854 103.156L53.0741 102.667L52.8517 102.178L52.6886 101.674L52.5255 100.636L52.57 99.3015L52.6886 98.4712L51.9621 97.893L51.2949 97.285L50.687 96.6327L50.1384 95.8913L49.7232 95.2241L49.397 94.5124L49.1302 93.7563L48.9522 93.0001L48.8633 92.2143V91.4285L48.9819 90.5389L49.145 89.7827L49.3822 89.1303L49.6936 88.4928L50.0346 87.9294L50.4349 87.4401L51.0873 86.7432L51.7842 86.1353L53.934 84.4302L54.5716 83.8224L54.9571 83.3776L55.2981 82.8883L55.5946 82.3397L55.7874 81.628V80.6494L55.565 78.7516V78.114L55.6391 77.4913L55.8763 76.6462L56.1877 75.8307L56.5732 75.0746L57.0477 74.3481L57.5666 73.666L58.1448 73.0285L58.7824 72.4354L59.4644 71.9016L60.1761 71.3975L60.9767 70.9379L61.807 70.5227L62.667 70.1669L63.5566 69.8704L64.461 69.6183L66.3144 69.3218L68.1974 69.2476L69.1166 69.2921L70.9552 69.5738L71.6817 69.2921L73.105 68.877L74.2022 68.6991L75.3439 68.5804Z" fill="#010101"/>
<path d="M80.9278 99.7612L81.6839 99.9095L82.6329 100.295L83.5521 100.784L84.1897 101.259L84.5752 101.837L84.8272 102.4L85.5092 104.506L86.2061 107.249L86.8881 110.377L87.5109 113.565L88.4598 119.006L89.0825 123.662L89.3494 126.657L89.5125 129.667L86.9771 130.112L81.6246 130.794L78.8224 131.075L76.0201 131.268L73.9295 131.342L71.8241 131.372L69.7039 131.313L67.5837 131.209L64.8852 131.031L62.1719 130.764L59.4883 130.423L59.5624 129.311L59.9627 125.945L61.2378 125.234L61.8161 124.789L62.3647 124.3L62.7205 123.884L63.2988 123.01L63.7287 121.868L66.2938 112.245L68.073 105.9L68.4733 104.313L68.9181 102.119L68.9922 100.28L70.8604 100.725L71.8835 100.903L73.9592 101.066L75.0267 101.081L76.0943 101.022L77.1173 100.903L78.1403 100.725L79.1337 100.473L80.053 100.147L80.9278 99.7612Z" fill="#FEFCFE"/>
<path d="M73.3701 73.6809H75.0603L75.7275 74.7484L78.4853 80.0119L79.2711 81.3612L78.085 81.6874L77.7291 81.8505L77.2695 82.2063L77.1064 82.4287L76.9878 82.6956L76.973 82.918L77.0174 83.1107L77.2843 83.4666L77.4771 83.6L77.9219 83.7631L78.8411 83.8669L79.9086 83.7928L80.4128 83.6741L81.0355 83.3924L81.4803 83.0218L81.7323 82.577L81.7768 82.147L81.6582 81.806L81.3172 81.465L80.8131 81.2722L79.968 81.2277L79.3304 79.8637L75.9647 73.7106L77.4919 74.1554L78.2481 74.4667L78.9746 74.8374L79.6566 75.2525L80.2793 75.7418L79.5083 76.2904L79.2711 76.5128L79.1525 76.8242L79.2266 77.0169L79.3749 77.1504H79.7011L80.0273 77.0911L81.3765 76.6166L82.2958 77.521L83.6153 79.1075L84.6087 80.6347L85.0832 81.4798L85.869 83.2738L86.1804 84.1783L86.3731 85.0679L86.4917 86.2095L86.4621 86.7285L86.3286 87.366L86.1359 87.9739L85.8542 88.5522L85.1128 89.6197L84.668 90.109L83.9564 90.791L83.2298 91.3989L82.6071 91.8437L81.9399 92.244L79.2118 93.6377L78.9894 94.6608L78.8115 95.921L78.7373 97.1813L78.7522 97.7596L78.8115 98.2044L78.9153 98.4861L79.0635 98.7233L79.4935 99.094L79.9976 99.4053L78.9153 99.8205L77.5512 100.132L76.4688 100.28L75.2975 100.354H74.1114L72.9252 100.295L71.7688 100.162L70.6864 99.9688L69.9896 99.7908L68.8034 99.3609L69.011 98.4416L69.1741 97.2406L69.2779 95.921V94.1715L69.1741 93.5784L69.0851 93.3857L68.6403 93.0002L66.609 91.7844L66.4163 90.1979L66.016 89.7679L65.4526 89.4862L63.8809 89.1452L63.3027 88.9673L62.7096 88.6856L61.9386 88.1073L61.5976 87.7367L61.3011 87.3364L61.0638 86.9064L60.9156 86.4616L60.8711 86.1206L60.9007 85.7795L61.0045 85.4534L61.1973 85.1123L61.4197 84.8603L61.6569 84.6675L62.0721 84.4451L63.7623 83.8817L64.3257 83.4962L65.7343 82.1173L67.1428 80.6198L68.492 79.0482L70.5826 76.3201L72.0653 74.1109L73.3701 73.6809Z" fill="#FEFCFE"/>
<path d="M72.0464 76.6462H72.6543L72.9805 76.7945L73.1287 76.928L73.1436 77.3283L72.9063 77.6545L72.7433 77.7731L71.5126 78.1586L71.3347 78.1734L70.9937 78.0844L70.9492 77.951V77.8027L71.0382 77.5358L71.1864 77.3134L71.5868 76.9428L72.0464 76.6462Z" fill="#010101"/>
<path d="M80.0261 77.7435L80.4709 77.7584L80.6637 77.8177L80.8416 77.9363L81.1381 78.2476L81.2864 78.6183V78.8259L81.2271 79.0335L81.1233 79.1966L80.7971 79.4486L80.4116 79.5079L80.1299 79.4338L79.8927 79.2707L79.7592 79.1076L79.6406 78.7221L79.6703 78.2773L79.7444 78.0845L80.0261 77.7435Z" fill="#010101"/>
<path d="M72.1527 79.5968L72.7013 79.6265L73.072 79.8489L73.2202 80.0119L73.3092 80.2195L73.3389 80.4419L73.3092 80.6643L73.1016 80.9609L72.9385 81.1091L72.4493 81.0943L72.0934 80.9164L71.9155 80.7088L71.7969 80.3826L71.8265 80.0713L71.8858 79.9082L72.1527 79.5968Z" fill="#010101"/>
<path d="M62.402 85.1272L63.3213 85.4682L63.6919 85.661L64.3295 86.1206L64.5222 86.3875L64.4778 86.6395L64.3443 86.8619L63.855 86.6544L62.2389 85.8092L62.1055 85.6758L62.1351 85.5127L62.402 85.1272Z" fill="#010101"/>
<path d="M64.5794 90.6279L64.6536 90.8355L64.6981 91.3396L64.5943 95.8173L64.6536 96.4845L64.7574 96.9441L65.1577 97.6855L66.1659 99.005L66.6848 99.8353L66.8776 100.087L67.0703 100.25L67.189 100.28L67.3817 100.147L67.5151 99.954L67.352 99.435L66.6997 98.5009L66.7886 97.3593L67.1148 97.7448L67.6931 98.5602L67.9155 99.005L68.0786 99.4647L68.2417 100.399L68.2565 101.096L68.1972 101.807L67.8413 103.631L63.0671 121.512L62.7261 122.461L62.474 122.95L62.1923 123.38L61.4806 124.107L60.6355 124.685L59.9387 125.041L59.2122 125.352L58.4856 125.53L57.774 125.634H56.8102L56.3061 125.545L55.7575 125.397L55.2386 125.189L54.2897 124.626L53.7263 124.151L53.2221 123.617L52.7773 123.01L52.9849 122.179L53.489 120.578L54.4824 118.235L55.4313 116.352L57.4923 112.616L62.7113 104.046L63.3637 102.786L63.5416 102.311L63.6009 101.674L63.5564 101.333L62.9485 99.3757L62.8002 98.5751L62.7558 97.7596L62.8151 96.9293L63.0968 95.328L63.4081 94.1419L64.5794 90.6279Z" fill="#FEFCFE"/>
<path d="M86.0474 90.0793L86.4478 90.1535L86.6702 90.4055L86.8481 90.7021L87.1298 91.3544L87.9897 93.9936L88.479 95.7876L88.8793 97.5669L89.0128 98.3972L89.0869 99.5092L89.0424 99.8354L88.8645 100.339L89.0128 100.888L89.1907 101.363L91.0144 105.203L93.9056 111.178L94.7804 113.09L95.581 115.077L95.9517 116.427L96.0703 117.094L96.1296 117.791L96.1 118.473L95.9962 119.169L95.8183 119.822L95.6403 120.252L95.1511 121.038L94.6766 121.542L94.1725 121.942L93.6239 122.283L92.4378 122.758L91.8002 122.921L89.8579 123.217L89.3241 119.333L88.1677 112.809L87.5005 109.562L86.7591 106.329L85.914 103.127L85.5581 102.104L85.3209 101.6L85.0689 101.199L84.5203 100.562L83.8827 100.102L83.349 99.8354L81.3918 99.0495L81.1991 98.5603L80.6208 96.3214L80.3984 94.9129V94.4829L80.4874 93.9788L80.6801 93.6971L81.036 93.534L81.4363 93.7267L81.6291 93.9195L82.148 94.7053L83.1117 96.6031L83.3934 96.9886L83.6751 97.2703L84.0755 97.5224L84.5203 97.7003L84.8316 97.7596H85.4544L85.9733 97.5965L86.2254 97.4482L86.685 97.0924L86.8481 96.8997L87.0112 96.3807L86.9963 95.4318L86.7739 94.0677L85.9288 90.8059V90.3462L86.0474 90.0793Z" fill="#FEFCFE"/>
<path d="M62.3667 100.547L62.5149 100.71L62.6336 100.932L62.9004 101.956L62.6336 102.563L61.9219 103.927L57.7111 110.822L55.6798 114.321L54.7309 116.1L53.8413 117.924L52.7441 120.459L52.24 121.809L52.0176 121.349L51.8693 120.83L51.7655 120.296L51.6914 119.214L51.7952 117.761L51.9879 116.738L52.2845 115.641L52.67 114.573L53.1148 113.461L53.6634 112.305L54.8792 110.051L55.576 108.924L56.6732 107.264L57.8297 105.692L59.0158 104.18L60.1575 102.83L61.3288 101.57L62.3667 100.547Z" fill="#FEFCFE"/>
<path d="M85.2891 90.7169L85.4522 91.2655L85.9415 93.5637L86.2974 95.8618L86.3122 96.3807L86.1936 96.5883L86.0157 96.7514L85.5857 96.959L85.1409 97.0924L84.4292 96.8404L83.762 96.4994L83.3024 95.7135L82.5758 94.1123L81.9531 93.2375L83.6582 92.0365L85.2891 90.7169Z" fill="#FEFCFE"/>
<path d="M66.8633 69.989L67.7974 69.9297L68.7314 69.9742L69.6507 70.0928L70.57 70.3152L70.6144 70.7007L70.5996 70.8934L70.5107 71.0565L70.14 71.0417L68.9835 70.8786L68.0346 70.8489L67.0857 70.8934L66.1516 70.9824L65.2323 71.1455L64.3279 71.3531L63.4383 71.6199L62.5635 71.9461L61.7184 72.3316L60.9029 72.7764L60.1171 73.2657L59.3461 73.8143L58.6196 74.437L58.0562 74.9856L57.5521 75.5639L56.6328 76.7945L56.959 76.0235L57.3297 75.297L57.7745 74.6149L58.2786 73.9477L58.8568 73.3398L59.4647 72.7913L60.0874 72.2871L60.7547 71.8572L61.6887 71.3382L62.6525 70.9083L63.6755 70.5672L64.7134 70.3004L65.7661 70.1076L66.8633 69.989Z" fill="#FEFCFE"/>
<path d="M65.1367 90.0497L65.4184 90.1535L65.6408 90.3462L65.8188 90.791L65.8781 91.2655L65.9374 95.1353L65.8336 97.3444L65.5815 96.8403L65.4184 96.3659L65.3146 95.8914L65.2405 95.1501V94.4236L65.4184 92.2144V91.4879L65.2702 90.539L65.1367 90.0497Z" fill="#FEFCFE"/>
<path d="M80.4157 81.9247L80.7122 81.9543L80.9791 82.073L81.0829 82.2954L81.0236 82.4584L80.7122 82.7846L80.475 82.9181L79.7485 83.1108L78.4289 83.185L77.8952 83.007L77.7617 82.7698L77.9841 82.5326L78.6365 82.236L79.793 81.984L80.4157 81.9247Z" fill="#FEFCFE"/>
<path d="M74.7751 10.0297L76.1243 10L77.518 10.0593L78.9414 10.2076L80.3648 10.4448L81.7881 10.7413L83.1967 11.1268L84.6052 11.5716L85.9545 12.0906L87.2592 12.6688L88.5492 13.3212L89.7353 14.0329L90.8621 14.789L92.2707 15.9011L93.5754 17.191L94.7467 18.5995L95.2508 19.3705L95.7105 20.1563L96.1108 20.9718L96.437 21.8169L96.7039 22.6769L96.8818 23.5665L97.0004 24.5599L97.0152 25.5236L96.9411 26.4874L96.778 27.4214L96.5408 28.3407L96.2146 29.2451L95.8143 30.1199L95.3398 30.965L94.7764 31.7953L94.0351 32.7294L93.2196 33.619L92.3448 34.4493L91.3959 35.2351L90.4025 35.9468L89.3646 36.614L88.2823 37.2219L87.1851 37.7705L84.9018 38.7194L82.6185 39.4163L81.4175 39.698L77.8146 40.3059L76.4653 48.431L76.1985 49.7802L75.9909 50.4771L75.8426 50.6253L75.635 50.7143L75.2199 50.8181L74.7899 50.6105L74.6417 50.4622L74.4341 49.795L73.2331 40.4097L72.2694 40.2318L69.3485 39.8166L67.762 39.4608L66.1311 39.0011L65.0636 38.6601L62.9433 37.815L61.9203 37.3257L59.9632 36.2137L59.0291 35.591L58.1543 34.9238L57.3388 34.1973L56.5678 33.4263L55.8561 32.596L55.1889 31.7064L54.5959 30.7723L54.0769 29.7937L53.6618 28.7855L53.4097 27.9997L53.217 27.199L53.0984 26.3836L53.0391 25.5533L53.0539 24.7081L53.128 23.8927L53.2615 23.092L53.469 22.321L54.0176 20.8087L54.7738 19.3853L55.3817 18.4809L56.0489 17.621L56.7902 16.7907L57.6947 15.9159L58.6436 15.1004L59.6221 14.3739L60.6452 13.7067L61.7127 13.0988L62.8099 12.5502L63.9219 12.0609L65.0784 11.6309L66.2497 11.2454L68.6368 10.6672L69.8674 10.4448L71.4984 10.2224L73.1441 10.089L74.7751 10.0297ZM73.7817 39.8314L74.0782 41.6403L74.3303 43.4788L75.042 49.3947L75.1902 49.9581L75.3089 50.0767L75.383 50.0916L75.6499 49.2464L75.9316 47.8527L77.0139 40.5876L77.0881 40.2614L77.2808 39.8611L77.607 39.7128L78.1704 39.5646L79.8903 39.2977L82.0254 38.8529L84.0122 38.2746L86.0583 37.4888L87.0516 37.044L89.0384 35.9913L89.9725 35.3982L90.8769 34.7607L91.7517 34.0787L92.5524 33.3521L93.3085 32.5812L93.9906 31.7657L94.5985 30.9057L95.1174 30.0013L95.5622 29.0524L95.9032 28.1183L96.1553 27.199L96.3036 26.2798L96.3629 25.5533L96.348 24.7971L96.2591 24.0261L96.1108 23.2255L95.8884 22.41L95.5326 21.4611L95.1026 20.5418L94.5985 19.667L94.0202 18.8219L93.3827 18.0361L92.7006 17.2799L91.1883 15.9011L90.3728 15.2783L88.6529 14.1811L87.0072 13.3212L85.4355 12.6392L83.0188 11.8089L81.373 11.3789L79.6976 11.0527L77.1622 10.7562L75.4571 10.682L73.0107 10.7858L71.4094 10.9489L69.8081 11.1713L68.2217 11.4827L66.65 11.883L65.1229 12.3723L63.996 12.8023L62.8989 13.2915L61.8313 13.8253L60.7935 14.4332L59.8001 15.1004L58.8512 15.8269L57.9319 16.6424L57.0571 17.5172L56.4196 18.2585L55.8265 19.0443L55.2779 19.9043L54.7886 20.7939L54.3883 21.7131L54.0621 22.6621L53.8694 23.3886L53.7359 24.1151L53.6766 24.8564V25.5978L53.7507 26.3836L53.8842 27.1694L54.0918 27.9256L54.3438 28.6817L54.7886 29.6603L55.3076 30.5795L55.9006 31.484L56.5678 32.3291L57.2647 33.1149L58.0209 33.8414L58.866 34.5531L59.7556 35.2203L60.6897 35.8282L61.6682 36.3916L63.0026 37.0737L64.3964 37.6667L65.8197 38.1857L67.2728 38.6305L68.7109 39.0011L70.1491 39.2977L73.7817 39.8314Z" fill="#010101"/>
<path d="M72.8915 14.2998L73.4846 14.3146L74.0332 14.4036L76.1831 15.1449L76.7317 15.2784L77.3099 15.3229L77.6806 15.308L78.8815 15.0856L79.6674 15.0263L80.0528 15.0856L80.4087 15.2339L80.7349 15.5156L80.8683 15.9604L80.9128 16.939L80.6607 19.8747L79.9194 26.7098L79.6674 28.3852L79.445 29.2452H78.3033L74.8042 29.0673L72.4467 29.008L71.3051 28.8597L71.2309 28.7411L71.1123 28.0887L71.053 27.3918L71.0234 25.835L71.0382 22.9735L70.9492 18.2141L71.0085 15.9456L71.1123 15.2932L71.2161 15.0856L71.4237 14.8484L71.9574 14.537L72.8915 14.2998Z" fill="#010101"/>
<path d="M73.0149 15.0411L73.5042 15.0856L73.9935 15.1894L75.9358 15.8714L76.9292 16.0938L77.4629 16.079L79.5387 15.738L79.7611 15.7676L79.9686 15.8714L80.0873 16.1383L80.1762 16.6869L80.1614 17.8434L79.4349 24.5451L79.257 25.8943L78.9456 20.8087L78.827 19.6523L78.6787 19.1037L78.2636 18.9257L77.7595 18.8516L75.1499 18.6144L72.9852 18.4958L72.7035 19.7116L71.9177 27.4363L71.8436 26.4577L71.7101 22.5583L71.6953 18.1251L71.7694 15.827L71.8139 15.5601L71.9622 15.397L72.3625 15.2042L73.0149 15.0411Z" fill="#FEFCFE"/>
<path d="M34.9248 34.4791L35.6513 34.4346L37.5788 34.4494L39.3728 34.6718L41.1224 35.0869L42.2492 35.4873L43.3464 35.9617L44.4139 36.5251L45.4221 37.1775L46.1338 37.7261L46.8158 38.3192L47.4534 38.9716L48.0465 39.6536L48.5951 40.3801L49.544 41.9221L50.3001 43.5975L50.5967 44.4426L51.0118 46.207L51.1453 47.3042L51.2194 48.4014L51.2046 49.4837L51.1156 50.5661L50.9673 51.6484L50.7598 52.7011L50.4781 53.7538L50.137 54.7917L49.2919 56.8081L48.2392 58.7208L46.8455 60.6928L48.2392 61.8492L50.9229 64.4291L53.7844 67.0386L55.0447 68.3137L55.193 68.5213L55.3264 68.8475L55.3561 69.0551L55.3116 69.3664L55.2226 69.574L54.9854 69.8409L54.674 69.9891L54.4516 70.0188L54.2441 69.9891L53.8586 69.8409L52.9096 69.3812L46.8158 65.7635L43.465 63.8509L42.0861 64.7553L39.1356 66.3862L37.0154 67.261L35.681 67.7058L34.3169 68.0913L31.6332 68.6696L29.2313 68.9661L26.9035 69.0551L25.747 69.0254L24.5905 68.9216L23.434 68.7585L22.3072 68.5065L21.21 68.1951L20.1277 67.7948L19.3419 67.4389L17.8444 66.5642L17.1327 66.0452L16.5396 65.5411L15.5017 64.4588L15.0569 63.8657L14.5232 63.0354L14.0635 62.1606L13.6929 61.2414L13.3963 60.2924L13.1739 59.3139L13.0108 58.2908L12.9367 57.3123L12.9219 56.3337L12.9812 55.3551L13.085 54.3617L13.3222 53.057L13.6336 51.7671L14.0487 50.4771L14.5528 49.2317L15.1014 48.0159L15.739 46.8297L16.4358 45.6881L17.1772 44.6057L17.9481 43.5827L18.7636 42.6486L19.6087 41.7442L20.4983 40.899L21.4324 40.0836L22.411 39.3274L23.9382 38.2747L24.9909 37.652L26.0732 37.0589L27.2 36.5251L28.9199 35.8431L30.0913 35.4576L31.2774 35.1166L32.4784 34.8497L33.6942 34.6273L34.9248 34.4791ZM40.2772 65.0074L43.4947 63.065L45.1256 63.9398L53.5175 68.9216L54.2292 69.2775L54.5999 69.2626L54.674 69.1588L54.6889 69.0254L54.6295 68.9068L53.4434 67.691L49.6033 64.1177L46.7121 61.5379L46.4304 61.2265L46.119 60.7817V60.5445L46.3859 60.0552L47.3941 58.8246L47.6017 58.4984L48.2096 57.4309L49.2178 55.2662L49.6329 54.169L49.9739 53.0422L50.2557 51.9153L50.4336 50.7737L50.5522 49.6172L50.5818 48.6979L50.5374 47.7638L50.4336 46.8149L50.2705 45.8512L49.9295 44.5464L49.6181 43.6272L49.0843 42.441L48.254 41.0325L47.2607 39.7426L46.3414 38.8085L45.0811 37.7854L43.7022 36.9106L42.8719 36.4807L41.9971 36.11L41.0631 35.769L40.1142 35.5021L39.1504 35.2945L38.1867 35.1463L37.1933 35.0721H36.2444L34.1983 35.25L33.0714 35.4131L31.9594 35.6355L29.7354 36.2583L27.5855 37.1034L26.5328 37.5927L24.5016 38.7343L22.5889 40.0391L21.6845 40.7656L20.0091 42.2928L19.2529 43.1231L18.4078 44.1164L17.6071 45.184L16.8658 46.296L16.1689 47.4376L15.561 48.6238L15.0124 49.8544L14.5528 51.1147L14.1673 52.3898L13.8856 53.6797L13.7373 54.6583L13.6484 55.6517L13.6187 56.6451L13.6484 57.6384L13.7373 58.617L13.9153 59.5511L14.1673 60.4704L14.4787 61.36L14.879 62.2199L15.3535 63.0502L15.9021 63.8212L16.5248 64.5477L17.2216 65.2298L18.0371 65.8673L18.8822 66.4159L19.757 66.9052L20.6763 67.3055L21.6252 67.6465L22.6037 67.9134L24.6054 68.2841L26.6366 68.4175L28.6531 68.3582L30.1654 68.2099L31.6777 67.9875L33.1752 67.691L34.6431 67.3055L36.0961 66.8459L37.5195 66.2973L38.9132 65.6894L40.2772 65.0074Z" fill="#010101"/>
<path d="M25.1803 43.1971L25.6399 43.212L26.0699 43.3306L26.8557 43.7161L27.8639 44.3388L30.7403 46.2959L35.2328 49.2613L37.0862 50.6847L37.4124 51.1146L37.0121 51.767L35.0697 54.4358L32.4009 57.8312H32.1934L30.4586 56.9564L23.1639 53.0569L21.1326 51.9301L20.7323 51.6632L20.4209 51.3074L20.3023 51.0553L20.2578 50.4771L20.4209 49.8395L20.5692 49.4985L21.1326 48.7424L21.5626 48.3272L22.9266 47.2004L23.3566 46.8L23.7124 46.3701L24.009 45.9104L24.1424 45.5694L24.4241 44.4278L24.6762 43.7309L24.8838 43.4344L25.1803 43.1971ZM32.4158 57.1788L30.9331 56.0075L28.8573 54.6879L24.1869 52.1822L23.8014 51.9005L23.5049 51.5743L23.5345 51.337L23.6531 51.0998L24.5576 50.0471L26.4554 48.09L27.3598 47.2597L27.9677 46.8297L29.1687 47.3042L32.9347 49.1723L35.307 50.4326L36.1224 50.8033L33.6464 49.0537L29.7321 46.4294L26.3516 44.3092L25.7585 43.9978L25.3879 43.8643L25.1803 44.324L24.7948 45.7473L24.6317 46.2218L24.3797 46.6814L23.7421 47.3635L22.2891 48.683L21.4291 49.632L21.1474 50.0619L21.014 50.3733L20.9843 50.6254L21.014 50.8626L21.2067 51.1443L22.0074 51.6336L28.1605 54.8806L31.3482 56.734L32.4158 57.1788Z" fill="#010101"/>
<path d="M21.5961 62.5165H21.8185L22.3226 62.6351L23.3753 63.0947L23.9387 63.4506L24.087 63.5988L24.1759 63.8212L24.1611 64.0585L23.8497 64.1029L23.657 64.0881L23.3604 63.9992L22.3522 63.5692L21.8036 63.2133L21.6554 63.0799L21.5664 62.813L21.5961 62.5165Z" fill="#010101"/>
<path d="M39.7741 38.8529L40.0261 38.9567L40.6933 39.3422L41.6422 40.1428L42.0722 40.6469L42.0574 40.8693L41.9536 41.0621L41.6126 40.9435L41.3012 40.7804L40.634 40.3208L40.0113 39.8018L39.6703 39.357L39.6406 39.105L39.7741 38.8529Z" fill="#010101"/>
<path d="M112.305 34.479L113.476 34.39L115.27 34.4938L117.554 34.8496L119.659 35.3686L121.616 36.0506L122.713 36.5251L123.811 37.0588L125.946 38.2895L127.962 39.7128L129.86 41.3289L130.735 42.1889L131.58 43.0933L132.366 44.0274L133.107 45.0208L133.789 46.029L134.397 47.0521L134.96 48.1196L135.82 50.1657L136.191 51.2332L136.487 52.3156L136.725 53.4127L136.903 54.5099L137.006 55.6368L137.036 56.7339L136.977 57.8459L136.843 58.958L136.606 60.0403L136.28 61.1227L135.924 61.9974L135.509 62.8129L135.049 63.5839L134.515 64.2956L133.937 64.948L133.3 65.5707L132.618 66.1341L131.891 66.6679L131.105 67.1423L130.275 67.5723L128.614 68.2099L126.85 68.6547L125.634 68.8474L124.389 68.9512L123.114 68.9957L120.563 68.8622L118.013 68.5064L115.552 67.9726L113.773 67.4685L112.112 66.9199L110.644 66.312L109.221 65.6152L107.842 64.8294L106.508 63.9694L104.951 64.8738L103.364 65.719L96.9148 69.0698L95.9066 69.4405L95.4618 69.4998L95.0466 69.3663L94.8984 69.1291L94.8242 68.8474L94.8835 68.4767L95.0614 68.1357L95.4766 67.6316L101.496 61.8788L102.845 60.5148L101.511 58.3797L100.933 57.3122L100.399 56.2298L99.9395 55.1178L99.5539 53.991L99.2426 52.8345L99.0054 51.6039L98.8423 50.314L98.783 49.3354L98.8423 47.3783L98.9609 46.3997L99.1536 45.4211L99.3909 44.4722L99.6874 43.5381L100.043 42.6189L100.458 41.7441L100.948 40.8841L101.496 40.0687L102.089 39.2977L102.786 38.5415L103.498 37.8743L104.239 37.2664L105.025 36.7475L105.84 36.273L106.7 35.8579L107.575 35.502L108.48 35.1907L109.71 34.8793L110.985 34.6421L112.305 34.479Z" fill="#010101"/>
<path d="M112.11 35.2204L113.029 35.1314L113.993 35.1166L114.986 35.1611L116.958 35.4428L117.937 35.6652L119.375 36.0507L120.695 36.4806L122.874 37.3851L123.942 37.9188L126.003 39.1495L127.93 40.5728L128.849 41.3438L129.739 42.1741L131.355 43.9237L132.111 44.8578L132.808 45.8215L133.446 46.8297L134.039 47.8528L134.973 49.8395L135.655 51.7967L135.907 52.8049L136.114 53.8279L136.263 54.851L136.337 55.8889V56.9267L136.277 57.9498L136.129 58.9728L135.907 59.9662L135.595 60.9596L135.254 61.7751L134.869 62.5313L134.424 63.2429L133.935 63.9101L133.386 64.518L132.778 65.0963L132.141 65.6152L131.459 66.1045L130.717 66.5345L129.932 66.9348L128.212 67.5872L126.447 68.0172L125.246 68.2099L124.016 68.3137L122.785 68.3433L121.555 68.2989L120.309 68.1803L117.833 67.7948L115.431 67.2165L113.652 66.6827L111.976 66.0897L110.983 65.6894L109.115 64.7553L106.416 63.1243L103.436 64.8591L96.5121 68.5213L95.6225 68.8623L95.5039 68.7882L95.5484 68.6102L95.9339 68.2099L102.309 61.9975L103.021 61.3748L103.703 61.1524L103.762 60.9448L103.733 60.6186L103.614 60.3962L102.769 59.2397L102.146 58.276L101.583 57.2529L101.064 56.2002L100.619 55.1179L100.248 54.0059L99.9223 52.879L99.6851 51.7522L99.522 50.6402L99.4627 49.7061L99.4923 47.8231L99.5961 46.8594L99.7444 45.9105L99.9668 44.9912L100.248 44.0719L100.575 43.1823L100.975 42.3076L101.42 41.4773L101.924 40.6914L102.502 39.9353L103.125 39.2088L103.807 38.5712L104.504 37.993L105.23 37.474L106.016 37.0144L106.817 36.5993L107.647 36.2434L108.507 35.9469L109.678 35.6207L110.879 35.3835L112.11 35.2204Z" fill="#FEFCFE"/>
<path d="M124 43.2861L124.415 43.301L124.667 43.3899L124.875 43.5234L125.127 43.7902L125.453 44.4278L125.764 45.4953L126.091 46.1477L126.876 47.0521L128.226 48.2679L129.041 49.1427L129.382 49.6468L129.56 50.0027L129.679 50.3585L129.708 50.7292L129.649 51.1295L129.501 51.4557L129.293 51.7077L128.73 52.1377L128.122 52.5232L124.83 54.1986L118.025 57.9795L117.699 58.0536L117.58 57.9646L116.512 56.6895L113.517 52.6863L112.391 50.996L113.458 50.1064L120.575 45.1247L121.806 44.3388L123.021 43.642L123.496 43.4344L124 43.2861Z" fill="#010101"/>
<path d="M123.987 43.9236L124.328 44.0274L124.595 44.3832L125.455 46.4886L125.604 46.7407L126.36 47.5858L127.664 48.6978L128.435 49.5281L128.865 50.2546L128.969 50.7587L128.925 51.0108L128.732 51.3073L128.094 51.7373L123.958 53.902L119.376 56.4225L117.819 57.1935L118.783 56.3632L120.34 55.2957L121.363 54.673L126.256 51.9745L126.449 51.8114L126.567 51.589L126.375 51.2628L126.019 50.7735L125.114 49.6764L122.253 46.6072L121.244 47.0076L118.487 48.3568L113.668 50.9515L114.735 50.0619L115.892 49.2316L121.052 45.6287L122.579 44.6649L123.987 43.9236Z" fill="#FEFCFE"/>
<path d="M109.987 39.2532L110.254 39.268L110.403 39.4014L110.462 39.5794L110.388 39.7128L109.558 40.4986L108.475 41.4179L108.238 41.4031L108.001 41.3141L107.941 41.2103V41.0917L108.06 40.8248L108.268 40.5431L108.816 40.039L109.987 39.2532Z" fill="#010101"/>
<path d="M128.289 62.4572L128.556 62.5906L128.659 62.7685L128.63 62.9761L128.348 63.2578L127.963 63.5099L127.132 63.9398L126.317 64.2512L126.02 64.0881L125.961 63.8212L126.139 63.6136L126.687 63.2133L128.289 62.4572Z" fill="#010101"/>
<path d="M43.4334 81.6577H43.7744L43.982 81.7763L43.9671 81.9246L43.8189 82.1025L43.0775 82.6066L41.4614 83.4073L39.7415 84.1634L39.3115 84.1931L39.1484 84.0152L39.2967 83.8224L39.6377 83.5555L40.5718 83.0069L43.4334 81.6577Z" fill="#010101"/>
<path d="M104.388 81.6577L104.818 81.7318L105.219 81.8949L107.22 82.8735L108.436 83.6148L108.555 83.7483L108.584 83.9262L108.555 84.1338L108.214 84.1041L107.813 83.9855L106.879 83.6L105.856 83.0811L104.952 82.577L104.388 82.1915L104.344 81.9246L104.388 81.6577Z" fill="#010101"/>
<path d="M89.0295 55.5479L89.3409 55.6961L89.3705 55.874L89.2222 56.2447L88.3919 57.7719L87.1613 59.5807L86.9093 59.388L86.8203 59.2249V59.0321L86.8796 58.8394L87.5172 57.6533L88.0954 56.7488L88.644 55.963L89.0295 55.5479Z" fill="#010101"/>
<path d="M61.6545 55.0437L61.8769 55.1771L62.0845 55.4292L62.5144 56.0964L62.9296 56.9119L63.4634 58.187L63.493 58.5132L63.3596 58.7949L63.063 58.6466L62.7517 58.2018L61.8917 56.556L61.4766 55.444V55.2068L61.6545 55.0437Z" fill="#010101"/>
</svg>
