<svg width="150" height="150" viewBox="0 0 150 150" fill="none" xmlns="http://www.w3.org/2000/svg">
<path d="M63.5585 83.5367L61.0088 83.4405L55.8774 83.5046H39.0719L35.3035 83.5687L32.4011 83.4886L31.6474 83.3924L30.8937 83.232L30.1881 82.9594L29.5307 82.6066L28.9213 82.1576L28.5044 81.7727L27.879 80.987L27.4781 80.105L27.3338 79.64L27.1894 78.9024L27.0932 78.0845L26.1151 64.2778L25.2171 50.471L23.5173 23.3225L23.4531 22.0557L23.4692 20.8049L23.6295 19.5862L23.7899 18.9769L24.0144 18.3835L24.3191 17.8544L24.6879 17.3573L25.1208 16.9403L25.6019 16.6036L26.099 16.331L27.2055 15.9782L28.6647 15.7537L37.6608 15.433L45.8069 15.2566L72.0093 15.016L90.0655 15L118.112 15.1283L120.084 15.2405L120.71 15.3528L121.319 15.5452L121.704 15.7216L122.41 16.2187L122.746 16.6036L123.051 17.0365L123.308 17.5176L123.612 18.2713L123.837 19.0731L124.109 20.6446L124.382 23.4508L124.991 41.9721L126.386 75.9357L126.354 77.828L126.162 79.0627L125.97 79.656L125.729 80.2173L125.392 80.7465L124.975 81.2436L124.446 81.7086L123.853 82.0935L123.211 82.4302L122.538 82.6868L121.159 83.0396L119.972 83.1839L118.769 83.232L99.3823 83.2961L88.1893 83.4725L88.5421 85.6053L88.5101 86.2948L88.4299 86.5835L88.1092 87.0164L87.9007 87.1447L87.1791 87.4654L89.0553 120.419L88.9751 121.397L88.6544 121.782L88.5742 122.279L88.8147 126.561L89.0873 128.661L89.1194 129.287L89.4722 129.639L90.9796 130.73L91.4927 131.323L91.7813 131.981L91.7653 132.622L91.6531 132.991L91.3484 133.231L91.1239 133.279L88.943 133.472L85.0463 133.584L83.4909 133.552L82.7051 133.456L82.5127 133.231L82.3523 132.67L82.3844 132.414L82.657 131.708L82.7212 131.018L82.6249 129.72L82.2241 127.394L80.6846 127.17L79.9309 126.977L79.2093 126.721L79.3697 118.783L79.6423 114.79L79.6583 113.796L79.6102 112.818L79.498 111.76L78.6962 107.542L78.5358 106.484L76.8842 114.854L75.1683 124.428L74.6231 127.972L74.3826 130.553L74.4147 132.317L74.3665 132.75L74.2543 133.135L73.6129 133.279L72.9233 133.296L70.518 133.199L65.4828 132.83L64.7772 132.718L64.6329 132.574L64.5527 132.365V132.029L64.6489 131.692L65.0017 131.083L66.8298 129.431L67.0543 128.966L67.2627 128.693L68.0004 128.613L68.1126 122.183L68.0966 121.622L67.7438 121.092L67.6796 120.852L67.5674 119.473L67.1825 109.001L67.0222 101.465L66.9901 93.9278L67.0863 86.391L66.4449 86.0222L65.8195 85.5732L65.2262 85.0921L63.5585 83.5367ZM68.5616 129.19L69.1549 129.431L69.7483 129.607L70.9509 129.752L72.1697 129.655L73.0837 129.479L73.9817 129.206L74.11 128.469L74.1902 127.122L74.3826 125.775L75.0561 121.878L74.0298 122.087L72.9394 122.215L71.4801 122.263L70.0369 122.119L68.6739 121.734L68.4814 126.705L68.5616 129.19ZM83.1541 129.543L84.9662 129.736L85.8962 129.784L86.8103 129.736L87.4036 129.639L87.9809 129.479L88.5582 129.271L88.2695 125.807L88.045 122.359L87.9648 121.926L87.8526 121.878L85.2388 122.199L84.3728 122.231L82.5127 122.167L82.0958 122.279L82.8013 127.875L83.1541 129.543ZM79.7706 126.4L81.5666 126.801L82.1278 126.817L81.5345 122.439L81.1336 120.114L80.6526 117.645L80.0592 115.416L79.7706 122.744V126.4ZM73.3242 58.5851L73.212 57.8475L72.9875 57.1579L72.7149 57.0938L72.2178 57.1419L71.8489 57.2541L70.4378 58.0078L70.0529 58.1361L69.5398 58.2002L69.0267 58.1842L68.3531 57.9918L68.0485 57.8154L67.7759 57.5909L67.375 57.0296L67.1665 56.5486L67.0543 56.0354L66.9901 55.394L67.0382 54.8488L67.1665 54.3517L67.391 53.8546L68.0164 52.8764L67.5033 52.1548L67.0543 51.3851L66.7656 50.7597L66.5571 50.1343L66.4128 49.4768L66.3647 48.9957L66.4449 48.0015L66.5732 47.4884L66.8618 46.8149L67.2307 46.2055L67.6957 45.6443L68.2088 45.1472L68.7861 44.7142L69.4275 44.3614L70.1171 44.0567L70.7745 43.8322L71.416 43.6879L72.0414 43.6238L73.3242 43.7039L74.7193 44.0567L76.7238 42.5975L77.2369 42.3088L78.183 41.9721L79.0971 41.8919L79.6583 41.94L80.1875 42.0683L80.6846 42.2607L81.1497 42.5333L81.5987 42.8541L81.9995 43.2229L82.3523 43.6398L82.9136 44.5699L83.2824 45.5801L83.4107 46.0933L83.5229 46.9111L83.539 47.7129L83.4909 48.3383L83.3786 48.9156L83.2022 49.4447L82.9457 49.9579L82.6089 50.4389L82.192 50.904L82.3844 51.6897L82.5448 53.5178L82.4967 54.6403L82.2561 55.5383L82.0477 55.9552L81.7911 56.3241L81.4704 56.6608L81.0695 56.9495L80.6526 57.174L80.2196 57.3022L79.2895 57.4145L78.7924 57.3824L78.8886 58.8256V60.2688L80.4281 60.4613L81.8873 60.4132L82.8174 60.3009L83.7474 60.1085L85.5916 59.5472L87.3234 58.7615L88.1733 58.2965L89.7288 57.206L91.1239 55.9552L91.0918 54.4799L91.2842 47.4884L91.2682 45.067L91.0437 37.8349L90.9635 31.7734L90.8673 29.1916V27.7805L90.9956 26.7382L91.4446 26.5778L92.6793 26.4816L101.515 26.69L107.753 26.9626L111.361 27.2192L112.852 27.4598L112.676 31.2282L111.409 43.0625L111.056 47.3761L110.8 51.6897L110.784 52.9245L110.832 54.1913L111.281 58.8898L111.265 59.1945L111.153 59.4671L110.864 59.5793L110.559 59.6114L105.219 59.7557L95.9827 60.317L94.9083 62.4337L94.4753 63.1553L94.0103 63.8448L93.2727 64.7749L92.4548 65.6248L91.5729 66.4266L90.6268 67.1642L89.6486 67.8377L87.5639 69.0404L85.4152 70.0186L85.9604 72.007L86.8744 76.0159L87.6602 80.0088L87.9488 81.9812L88.029 82.2217L88.2054 82.3981H93.3529L119.026 82.1897L121.063 81.9812L121.928 81.7727L122.506 81.5964L123.035 81.3398L123.532 81.0351L124.013 80.6342L124.398 80.2012L124.687 79.7523L125.072 78.7099L125.312 77.1545L125.36 74.9576L125.072 69.3932L124.558 57.4947L123.179 23.0018L122.875 20.1635L122.73 19.3778L122.329 18.127L121.832 17.261L121.512 16.9403L121.191 16.6838L120.838 16.5074L120.261 16.331L119.619 16.2187L117.92 16.0584L114.296 15.9461L91.2682 15.8499L70.1492 15.9301L57.8498 16.0263L45.5504 16.2027L39.8096 16.347L29.9797 16.6677L28.6327 16.78L27.3338 16.9884L26.5159 17.3252L26.1792 17.5497L25.8104 17.9025L25.2491 18.6722L24.8162 19.7145L24.6718 20.3399L24.5917 20.9974L24.5436 22.1359L24.5596 23.4027L28.1035 77.2507L28.2318 78.4052L28.3601 79.0788L28.5525 79.7041L28.9694 80.4739L29.2581 80.8427L29.8674 81.436L30.573 81.9171L31.3427 82.2859L32.1605 82.5104L33.4755 82.6387L35.1592 82.6708L40.1624 82.5585L58.7478 82.5104L60.8324 82.5264L62.885 82.6066L62.4199 81.9652L61.6342 80.6021L61.3135 79.8485L61.105 79.1108L60.9607 78.3571L60.9126 77.5874L60.9446 76.8017L61.0409 76.032L61.2012 75.2622L61.4418 74.5086L61.8266 73.4823L62.3237 72.44L63.5424 70.2751L65.0338 68.1584L66.7175 66.154L68.5777 64.2778L70.5019 62.6742L71.5282 61.9686L72.5064 61.3593L73.4846 60.8461L73.3242 58.5851ZM81.0053 60.9744L80.5884 61.4715L80.1234 61.9205L79.065 62.6421L77.8784 63.1713L76.9483 63.4439L76.0022 63.6363L75.1844 63.7165L74.3505 63.7326L73.5327 63.6684L72.7309 63.5081L72.2017 63.3477L71.2075 62.8666L69.62 64.1335L67.5193 66.1219L66.2845 67.4689L64.7772 69.3771L63.4302 71.3976L62.8689 72.4079L62.3718 73.4181L61.9709 74.4605L61.6663 75.4707L61.4578 76.4489L61.3937 77.1865V77.9081L61.4899 78.5816L61.8747 79.8966L62.1473 80.538L62.6765 81.452L63.3019 82.35L63.8952 83.0716L64.5206 83.7131L65.2101 84.3385L66.9901 85.7175L67.1344 85.6053L67.1986 85.4289L67.9523 79.6079L68.7701 74.4605L69.2832 71.9589L69.3794 71.7344L69.5558 71.7825L69.636 72.1032L69.62 72.44L69.4115 74.0916L68.5456 79.0467L67.5995 85.7175V85.9741L67.7278 86.1986L67.9362 86.375L68.2249 86.5033L69.9086 87.0966L71.0953 87.4173L72.314 87.6739L73.5487 87.8503L76.0503 88.0748L77.9265 88.1389L80.9252 88.1229L82.0958 88.0427L83.2503 87.8984L84.3889 87.6899L85.5274 87.4173L87.0829 86.9042L87.5319 86.6957L87.8686 86.4391L87.9328 86.2627L87.9488 85.5572L87.7724 84.0819L86.7782 78.1326L86.0726 74.6208L85.5916 72.6003L84.8699 69.9063L84.8218 69.6016L84.8539 69.297L84.9822 69.2168L85.335 69.4252L86.4254 69.0404L88.7346 67.7896L89.9533 66.9878L91.1078 66.1059L91.9096 65.4003L92.6793 64.6306L93.3849 63.7967L94.0424 62.8827L93.9462 62.2252L93.8018 61.5838L93.5934 60.9744L92.984 59.8359L92.1662 58.8256L91.6691 58.3766L91.0277 57.8956L90.3221 57.4947L89.3118 58.1842L87.4036 59.3067L86.4254 59.7557L85.4312 60.1406L84.4049 60.4452L83.3626 60.6858L82.2241 60.8622L81.0053 60.9744ZM99.687 49.3966L99.8152 49.0919L99.7351 48.9637L99.3662 48.7712L98.2117 48.3703L97.9551 48.21L97.7306 47.9855L97.7466 47.8091L98.0513 47.4884L98.7248 47.1035L99.4304 46.863L99.8313 46.8469L99.9596 46.9271L99.9435 47.1196L99.8313 47.2799L99.6549 47.4082L98.9974 47.6648L98.6767 47.9053L99.0455 48.1619L100.168 48.3543L100.425 47.8893L100.649 47.2799L100.713 46.7507L100.665 46.5583L100.569 46.3979L100.296 46.3017L99.6388 46.2857L98.6607 46.4942L98.34 46.6224L98.0673 46.7988L97.6344 47.312L96.5279 49.6051L95.646 50.9681L94.4433 52.6519L93.0963 54.3998L91.7813 55.9873L90.6749 57.1419L91.2522 57.4626L92.07 58.0399L92.7916 58.7455L93.2085 59.2586L93.5773 59.8198L94.0263 60.7178L94.315 61.664L94.4433 62.3054L95.3252 60.4933L96.2713 58.1842L97.1212 55.827L98.1315 52.5877L98.5324 51.5294L99.0776 50.455L99.687 49.3966ZM71.6405 62.594L72.3781 62.8987L73.6449 63.2194L74.7193 63.2675L75.7136 63.1392L76.7398 62.9308L78.0708 62.5138L78.7122 62.2252L79.3216 61.8885L79.8668 61.4876L80.3799 61.0225L79.3857 60.8301L78.3113 60.7018H77.7822L76.2107 60.8461L74.6071 61.1027L73.4204 61.5196L72.2498 62.145L71.6405 62.594ZM72.1376 131.644L73.7091 131.596L73.9336 129.784L72.8111 130.12L72.2017 130.217L71.5763 130.281L70.3255 130.249L69.7162 130.153L69.1389 129.992L68.6097 129.784L67.9042 129.255L66.6053 130.329L65.3705 131.5L68.754 131.628L72.1376 131.644ZM100.056 41.3627L100.745 41.2505L101.387 41.058L102.012 40.7854L102.589 40.4487L103.103 40.0157L103.584 39.5026L103.872 39.0696L104.305 38.1395L104.434 37.6585L104.498 37.1453L104.417 36.2954L104.193 35.638L103.856 35.0447L103.279 34.4193L102.638 34.0184L102.108 33.8099L101.531 33.6977L100.954 33.6495L100.232 33.7618L99.5426 33.9382L98.8852 34.1948L98.2758 34.5315L97.5542 35.1248L97.2175 35.5097L96.9448 35.9427L96.7364 36.3917L96.5921 36.8567L96.5279 37.3217L96.5119 37.8188L96.576 38.332L96.8647 39.2781L97.0892 39.7271L97.3778 40.128L97.7306 40.4808L98.1315 40.8015L98.5805 41.042L99.0455 41.2024L100.056 41.3627ZM76.4512 92.645V93.5911L76.5474 94.5532L77.2049 98.7225L77.6539 100.984L78.6641 105.506L78.8405 105.602L79.049 105.634L78.8566 104.463L78.0387 100.984L77.7501 99.6045L77.0926 95.4031L76.804 93.1902L76.6917 92.7733L76.4512 92.645ZM83.3466 131.804L85.3991 131.9L88.2535 131.932L90.1457 131.836L91.0758 131.692L90.6107 131.211L89.5684 130.313L88.9109 129.896L88.6864 129.832L88.1573 130.008L87.4677 130.169L85.9443 130.329L84.437 130.313L83.7474 130.217L83.2183 130.088V130.954L83.3466 131.804ZM82.0797 53.3895L81.7751 51.5133L81.6628 51.2568L81.4223 51.1124L81.1657 51.0483L80.2517 50.9842L80.412 51.7378L80.4922 52.4594V53.165L80.4441 53.6942L80.3158 54.2073L80.1394 54.7365L79.8828 55.2497L79.6423 55.6185L79.3537 55.9552L78.6802 56.5165L78.7924 56.8051L79.0811 56.9174L79.4018 56.9334L80.1073 56.8051L80.4601 56.6768L81.0374 56.3241L81.5024 55.7788L81.8552 54.9771L81.9675 54.4479L82.0797 53.3895ZM73.8694 59.4831L73.9496 60.7178L75.0721 60.4933L76.1626 60.333L78.4076 60.1887L78.1991 56.6929L77.9425 56.757L77.6218 57.5909L77.3973 57.9757L77.0926 58.2965L76.7559 58.553L76.355 58.7134L75.906 58.7936L74.0779 58.8417L73.8694 58.97V59.4831ZM91.3644 26.9626L91.4606 33.6977L91.8455 48.1458L91.7974 51.2728L91.621 54.4479L91.5248 55.4261L93.0642 53.5499L94.5235 51.6256L94.1546 51.5935L93.8179 51.4973L93.7217 51.4332L93.6736 51.2888L94.0424 51.1606L94.6838 51.0964L94.8762 51.0323L95.1488 50.8238L95.7422 50.006L96.56 48.4666L96.9128 47.6968L95.6941 47.8412L95.197 47.761L95.0687 47.6648L95.1168 47.6167L95.3413 47.4563L95.662 47.3601L96.9769 47.2639L97.3297 46.7828L97.6665 46.4942L98.0513 46.2536L98.4522 46.0772L99.3662 45.8207L99.6388 41.94L98.5965 41.6353L98.1315 41.4269L97.6825 41.1543L97.2816 40.8175L96.9128 40.3846L96.5921 39.8874L96.3355 39.3102L96.1431 38.7168L96.0308 38.1075L95.9987 37.4821L96.095 36.6803L96.2874 36.087L96.56 35.5097L96.9128 34.9965L97.3457 34.5475L97.8589 34.1627L98.4843 33.7939L99.1578 33.5052L99.8794 33.2968L100.617 33.1845L101.114 33.1685L102.076 33.2647L102.557 33.409L102.99 33.6014L103.744 34.1627L104.369 34.9164L104.626 35.3654L104.818 35.8464L104.947 36.3435L105.027 36.8567L105.011 37.3698L104.931 37.899L104.578 38.8932L103.985 39.9195L103.6 40.3525L103.231 40.6572L103.84 41.1382L104.081 41.4589L104.225 41.8117L104.241 42.1805L103.92 42.0202L103.632 41.7957L103.407 41.5071L103.183 41.042L103.231 40.6572L102.301 41.2505L101.788 41.475L100.986 41.7316L100.168 41.9079L99.8313 45.7565L100.36 45.6603H100.617L100.874 45.7565L101.018 45.8848L101.114 46.0452L101.21 46.3979V47.0875L105.668 47.0554L106.502 47.1516L106.855 47.2639L106.807 47.3601L106.695 47.3922L106.085 47.5044L102.942 47.5204L101.098 47.4563L100.97 48.0496L100.457 49.2523L99.4625 50.9361L105.716 50.8719L106.213 50.904L106.662 51.0002L106.711 51.1766L105.716 51.3369L99.2059 51.4171L98.5965 52.9084L97.2976 56.9655L96.1751 59.7557L97.3137 59.7397L105.781 59.2586L110.816 59.1624L110.383 55.0252L110.303 53.6461L110.335 49.9098L110.671 45.2113L111.569 36.8086L112.387 27.8927L109.485 27.6041L103.648 27.2513L96.0468 26.9947L91.3644 26.9626Z" fill="#191818"/>
<path d="M88.0417 122.359L88.154 122.199L88.5709 122.279L88.8115 126.561L89.0841 128.661L89.1161 129.287L89.4689 129.639L90.9763 130.73L91.297 131.067L91.6498 131.612L91.7781 131.981L91.6819 132.221L91.5375 132.43L91.4253 132.189L91.5375 132.221L91.5215 131.628L91.4413 131.387L91.2168 131.083L90.9121 130.826L89.517 129.912L89.3246 129.736L89.0841 129.303L88.8596 128.036L88.5549 123.273L88.4426 122.68L88.3304 122.327L88.2663 122.471L88.2181 123.402L88.603 128.437L88.587 129.271L88.4426 129.415L87.8814 129.688L87.4805 129.8L86.4221 129.912L83.9045 129.8L83.3112 129.671L83.0065 129.415L82.9103 129.206L82.75 128.437L82.6217 127.186L82.5415 126.897L82.3972 126.865L81.8039 127.01H81.6275L81.5633 126.801L82.1246 126.817L81.5312 122.439L82.0925 122.279L82.7981 127.875L83.1509 129.543L84.9629 129.736L85.893 129.784L86.807 129.736L87.4003 129.639L87.9776 129.479L88.5549 129.271L88.2663 125.807L88.0417 122.359Z" fill="black"/>
<path d="M74.8631 123.097L75.3922 123.257L74.6225 127.972L74.2697 128.405L74.1094 128.469L74.1896 127.122L74.382 125.775L74.8631 123.097Z" fill="black"/>
<path d="M39.3114 50.1182L40.498 50.3747L41.7007 50.7275L42.7911 51.2246L44.972 51.9302L46.0624 52.3632L47.0727 52.8282L46.5756 54.2875L44.9078 58.6171L44.1221 60.83L43.7052 61.7761L43.4967 61.9365L43.0477 61.9044L41.8129 61.5035L37.4192 59.6755L36.2165 59.1302L35.543 58.7294L35.7354 57.9917L36.2004 56.7409L37.4833 53.6621L38.8143 50.7756L39.3114 50.1182ZM39.135 51.2888L36.024 58.4728L42.0374 61.0706L43.3043 61.5196L46.4633 53.1168L43.8334 52.1547L42.9996 51.7859L39.5519 50.6473L39.135 51.2888Z" fill="black"/>
<path d="M39.4887 53.4536L41.2526 53.9668L43.6259 54.7846L44.3315 55.1053L44.4437 55.41L44.0108 55.3939L42.7119 55.1213L40.5952 54.3997L39.5528 53.9668L39.4727 53.7102L39.4887 53.4536Z" fill="black"/>
<path d="M39.3104 50.1182L41.1064 50.5351L42.261 50.952L42.7902 51.2246L43.0467 51.6255L42.9986 51.7859L39.551 50.6473L39.134 51.2888L39.0699 51.1605L39.1821 50.936L39.6311 50.4228V50.3106L39.4227 50.3266L39.2302 50.471L38.7652 51.2086L38.4766 51.5293L38.8133 50.7756L39.3104 50.1182Z" fill="#191818"/>
<path d="M105.286 64.0693L106.585 63.941L109.231 63.8768L113.176 64.0212L113.994 64.1975L113.849 66.9236L113.801 71.157L113.721 72.5682L113.561 73.4341L112.743 73.5624L109.52 73.6426L106.232 73.5303L105.334 73.4181L105.238 71.7985L105.286 64.0693ZM105.719 73.0493L113.144 73.0813L113.465 64.5503L112.166 64.422H108.959L105.767 64.5022L105.671 69.6016L105.719 73.0493Z" fill="black"/>
<path d="M113.174 64.0212L113.992 64.1976L113.848 66.9237L113.736 66.3143L113.431 65.7852L113.463 64.5504L112.164 64.4221L112.95 64.3901L113.11 64.2457L113.174 64.0212Z" fill="#191818"/>
<path d="M52.3945 29.0314L52.17 26.8184L52.0898 25.4554L52.1059 24.2367L52.2342 23.3868L53.036 23.2104L54.5112 23.0821L56.3553 22.9859L59.7549 22.9698L60.6369 23.05L60.8133 23.1462L60.8935 23.499L60.9576 24.1565L61.0057 25.7761L60.8935 29.6407L60.7491 31.2924L60.5888 32.3668L59.803 32.5271L58.44 32.6073L55.0725 32.6234L52.6351 32.5592L52.5068 31.4527L52.3945 29.0314ZM52.7954 28.1815L53.052 32.0942L58.2636 32.1102L59.4663 32.0621L60.1398 31.9659L60.252 31.549L60.1879 30.8113L60.3643 29.0634L60.4284 27.6683L60.4605 26.2732L60.4124 23.483L59.0333 23.467L52.6351 23.6915L52.6511 25.9365L52.7954 28.1815Z" fill="black"/>
<path d="M57.8328 25.2468L58.0893 25.4072V25.5836L57.8969 25.8241L57.031 26.4976L54.6256 27.9889L54.4973 27.8606L54.4492 27.7003L54.8501 27.2513L56.4377 26.1128L57.8328 25.2468Z" fill="black"/>
<path d="M58.7774 27.7644L58.9057 27.9087L58.9378 28.1012L58.7293 28.3257L57.8795 28.935L56.2919 29.833L55.4901 30.2339L55.2656 29.9613L55.4099 29.8009L56.4523 29.0633L58.7774 27.7644Z" fill="black"/>
<path d="M52.8314 28.7587L52.8635 29.6246L52.6069 30.2019L52.4305 30.3462L52.3984 29.1596L52.8314 28.7587Z" fill="#191818"/>
<path d="M53.859 65.6407H56.9058V70.2751L56.7775 73.7388L56.6813 74.284L56.6172 74.4444L56.4087 74.5566L56.0238 74.6689L55.0136 74.8132L52.7686 74.8934L48.6314 74.749L48.5352 68.014L48.5672 65.769L51.2131 65.6568L53.859 65.6407ZM49.0323 66.2661L48.936 68.5592L49.0162 72.5521L49.1285 74.2519L49.3209 74.3642L49.5454 74.3802L52.945 74.4123L54.6448 74.3481L56.3285 74.1878L56.4568 68.2065L56.4247 66.8274L56.3285 66.1699L55.8474 66.1379L49.0323 66.2661Z" fill="black"/>
<path d="M49.831 66.9877L53.7277 66.9717L55.3473 67.0519L55.6359 67.2122L55.5076 67.4046L54.6738 67.4688L52.0439 67.5169L50.8092 67.4848L50.3121 67.4528L49.847 67.3245L49.7188 67.1801L49.831 66.9877Z" fill="black"/>
<path d="M58.2472 38.6206L59.979 38.6366L60.5403 38.6847L60.9893 38.781L61.0855 38.8611L61.1657 39.1177L61.31 40.2402L61.3581 42.7418L61.326 44.5057L61.1657 47.0394L59.9149 47.1676L58.632 47.2318L53.9977 47.2799L53.0035 47.1195L52.8912 46.7668L52.8111 46.2055L52.7148 44.7623V41.2665L52.795 39.8072L52.9233 38.9413L53.6449 38.781L54.7995 38.6847L58.2472 38.6206ZM57.1888 46.7828L58.9688 46.7186L60.7648 46.5904L60.8289 42.9021L60.7167 39.2139L58.7763 39.1498L55.008 39.1819L53.9656 39.246L53.5487 39.3101L53.3563 39.4064L53.2761 40.2081L53.1959 43.1587L53.212 44.7302L53.3563 46.43L53.4204 46.6064L53.5327 46.6866L54.2703 46.7988L57.1888 46.7828Z" fill="#191818"/>
<path d="M74.2387 25.4231L74.383 25.4552L74.5594 25.5514L74.9122 25.9362L75.7942 27.0427L77.8788 29.9772L79.1777 31.9977L78.1033 32.8156L72.571 36.6802L72.3305 36.7283L72.1541 36.6L71.8173 36.2312L70.9835 35.1568L68.995 32.3024L67.6641 30.2498L68.3055 29.6726L70.8071 27.7643L73.4369 25.9202L74.2387 25.4231ZM68.3055 30.3942L71.4164 34.7719L72.122 35.718L72.4908 36.1189L75.5376 34.0182L78.4882 31.8214L76.4356 28.8708L74.2708 26.0004L72.7474 27.0106L71.224 28.1011L68.3055 30.3942Z" fill="black"/>
<path d="M41.3959 33.5532L41.3158 33.8098L41.1714 34.0343L40.4338 34.1144L39.0387 34.1946L35.575 34.2267L34.1638 34.1786L33.4422 34.0984L33.2819 33.5372L33.1375 31.5167L33.1055 29.8008L33.2017 27.3153L33.362 26.1447L33.4743 25.8721L33.8271 25.7919L35.7995 25.6476L40.4338 25.6797L40.9149 25.7278L41.3158 25.9523L41.428 26.3692L41.5242 27.0587L41.5884 28.7104L41.5723 30.5545L41.3959 33.5532ZM40.8988 33.6494L40.995 32.6712L41.0592 31.0677L41.0752 29.448L40.979 26.2249L40.1933 26.1607H35.8476L33.7309 26.305L33.5384 28.999L33.5224 31.0677L33.6828 32.9438L33.8271 33.6815L34.9816 33.7937L36.1683 33.8258L40.8988 33.6494Z" fill="black"/>
<path d="M39.9531 25.6798L40.6747 25.6958L41.1398 25.8081L41.3162 25.9524L41.4284 26.3693L41.5246 27.0589L41.5888 28.7106L41.5727 30.5547L41.3963 33.5534L40.9954 32.6714L41.0756 29.4482L40.9794 26.225L40.1937 26.1609L39.9531 25.6798Z" fill="#191818"/>
<path d="M83.043 33.377H86.667L89.329 33.4892L89.9704 33.5854L90.0987 33.9222L89.1686 33.9703H86.3463L83.6363 33.842L83.043 33.6977V33.377Z" fill="black"/>
<path d="M83.1992 34.5154L85.2678 34.5314L88.2184 34.7078L89.389 34.8682L89.822 34.9804L90.0304 35.0766L90.0946 35.1728L90.1106 35.3011L88.2665 35.237L83.3596 34.8842L83.2153 34.804L83.1992 34.5154Z" fill="black"/>
<path d="M102.158 54.8808L104.082 54.7686H105.621L105.974 54.8167L106.247 54.9129L106.487 55.0732L106.535 55.1694L105.942 55.2817L104.836 55.3298L101.645 55.3619L101.853 55.2496L101.981 55.0572H101.901V55.0091L102.158 54.8808Z" fill="#191818"/>
<path d="M101.644 55.3619L100.024 55.5382H99.1423L98.7574 55.4901L98.4688 55.3939L98.5169 55.2656L98.8376 55.1374L99.7676 54.9449L101.307 54.8647L102.157 54.8808L101.9 55.0091V55.0572H101.981L101.852 55.2496L101.644 55.3619Z" fill="black"/>
<path d="M104.528 31.4204L104.769 31.5968V31.7251L104.688 31.9977L104.272 32.575L103.534 33.2966L103.277 33.1523L103.358 32.8636L103.55 32.5429L104.528 31.4204Z" fill="black"/>
<path d="M100.342 29.7848L100.615 29.9291L100.727 30.1536L100.775 30.4423L100.727 31.0676L100.615 31.6289L100.374 31.5006L100.246 31.1959V30.2979L100.342 29.7848Z" fill="black"/>
<path d="M95.7422 31.4847L96.095 31.6291L96.4317 32.03L96.6242 32.5752L96.7204 33.1044L96.4478 32.96L96.2072 32.7516L96.0148 32.4629L95.8544 32.1582L95.7582 31.8375L95.7422 31.4847Z" fill="black"/>
<path d="M94.8898 40.0958L95.1784 40.3524L95.1303 40.5128L94.6332 40.8014L94.072 40.9938L93.7031 40.9297L93.7192 40.8335L93.7993 40.6891L93.9918 40.5288L94.8898 40.0958Z" fill="black"/>
<path d="M107.209 35.3975L107.433 35.4295L107.497 35.622L107.433 35.7663L106.872 35.9747L106.295 36.087H106.102L105.926 36.0068L106.166 35.7342L106.359 35.622L107.209 35.3975Z" fill="black"/>
<path d="M106.275 38.5724L107.205 38.7969L107.413 38.8931L107.606 39.1176L107.574 39.4383L107.028 39.3421L106.451 39.0855L106.227 38.7969L106.275 38.5724Z" fill="black"/>
<path d="M93.3524 36.9048L93.9457 36.9689L94.507 37.1132L94.6513 37.2095L94.7315 37.3698L94.6352 37.5141H93.9778L93.6731 37.45L93.3844 37.3057L93.3203 37.1132L93.3524 36.9048Z" fill="black"/>
<path d="M74.7218 44.0567L76.7263 42.5974L77.2394 42.3088L77.8007 42.0682L78.6185 41.9079L79.0996 41.8918L79.6608 41.94L80.19 42.0682L80.6871 42.2607L81.1521 42.5333L81.6011 42.854L82.002 43.2228L82.6595 44.0887L83.1245 45.0669L83.4132 46.0932L83.5254 46.911L83.5414 47.7128L83.4933 48.3382L83.3811 48.9155L83.2047 49.4447L82.9481 49.9578L82.6114 50.4389L82.1944 50.9039L82.3869 51.6897L82.0501 51.7538L81.7775 51.5133L81.6653 51.2567L81.4247 51.1124L81.1682 51.0482L80.2541 50.9841L80.4145 51.7378L80.4947 52.4594V53.165L80.4466 53.6941L80.3183 54.2073L80.1419 54.7365L79.8853 55.2496L79.6448 55.6184L79.0354 56.2438L78.6826 56.5164L78.5864 56.4683L78.5543 56.5485L78.2016 56.6928L77.945 56.757L77.6243 57.5908L77.3998 57.9757L77.0951 58.2964L76.7583 58.553L76.3574 58.7133L75.9084 58.7935L74.0804 58.8416L73.8719 58.9699V59.483L73.7917 58.9699L73.7115 58.8416L73.3267 58.585L73.2144 57.8474L72.9899 57.1579L72.7173 57.0937L72.2202 57.1418L71.8514 57.2541L70.793 57.8474L70.0554 58.136L69.5423 58.2002L69.0291 58.1841L68.6763 58.12L68.0509 57.8153L67.5538 57.3182L67.3774 57.0296L67.169 56.5485L67.0567 56.0354L66.9926 55.3939L67.0407 54.8487L67.169 54.3516L67.3935 53.8545L68.0189 52.8763L67.5057 52.1547L67.0567 51.385L66.7681 50.7596L66.5596 50.1342L66.4153 49.4767L66.3672 48.4986L66.4474 48.0015L66.5756 47.4883L66.8643 46.8148L67.2331 46.2055L67.6982 45.6442L68.2113 45.1471L68.7886 44.7141L69.43 44.3613L70.1195 44.0567L70.777 43.8322L71.4184 43.6878L72.0438 43.6237L73.3267 43.7039L74.7218 44.0567Z" fill="#191818"/>
<path d="M102.72 36.0869L102.848 36.4397L102.463 37.001L101.822 37.6103L100.555 38.6366L100.042 37.9631L99.6729 37.2094L99.4805 36.5199L99.5125 36.568L99.5286 36.2633L99.7531 36.4237L99.9776 36.6802L100.619 37.931L101.613 36.9528L102.158 36.4718L102.72 36.0869Z" fill="black"/>
<path d="M66.9947 85.7174L66.7381 85.6693L66.4976 85.541L65.6637 84.9477L64.8299 84.2582L64.0281 83.4724L63.3065 82.6225L62.8414 82.0292L62.0878 80.7784L61.7831 80.121L61.3822 78.79L61.2699 78.0042L61.2539 77.2185L61.3341 76.4327L61.4784 75.647L61.9595 74.1076L62.4405 72.969L63.0178 71.8786L64.2686 69.8741L65.5194 68.1423L66.2089 67.3084L67.6361 65.7369L68.4058 64.9832L70.282 63.3155L70.8433 62.9146L70.9716 62.8826L71.3083 62.9146L73.0081 63.3957L74.2909 63.5881L75.5578 63.5721L76.8727 63.3316L78.3801 62.8024L79.5827 62.2091L80.3043 61.6478L80.6732 61.1347L81.0099 60.8941L81.6834 60.7658L82.838 60.6857L84.201 60.3649L85.5801 59.948L87.3761 59.2264L88.226 58.7774L89.0438 58.2803L89.8135 57.719L90.5031 57.1097L91.1766 56.4041L93.6781 53.3413L96.3882 49.605L96.8372 48.8032L97.222 47.9693L97.4626 47.2156L97.5748 47.0232L97.8314 46.7506L98.1681 46.5422L98.537 46.3818L100.141 46.045L100.445 46.0611L100.686 46.1573L100.798 46.3978L100.782 47.1194L100.557 47.9533L100.237 48.5947L100.028 48.5787L99.7877 48.4023L99.0341 48.3061L98.8577 48.2419L98.537 47.9533L98.569 47.7769L98.6973 47.6486L99.6915 47.1996L99.8198 47.0553L99.7717 46.943L99.451 46.9751L99.1463 47.0874L98.3125 47.6165L97.9116 47.7288L97.8474 47.825L97.9276 48.0014L98.3606 48.29L98.8737 48.4985L99.916 48.8032L99.9481 49.0437L99.8359 49.621L99.6915 49.3965L99.8198 49.0918L99.7396 48.9635L99.3708 48.7711L98.2162 48.3702L97.9597 48.2099L97.7352 47.9854L97.7512 47.809L98.0559 47.4883L98.7294 47.1034L99.435 46.8629L99.8359 46.8468L99.9641 46.927L99.9481 47.1194L99.8359 47.2798L99.6595 47.4081L99.002 47.6647L98.6813 47.9052L99.0501 48.1618L100.173 48.3542L100.429 47.8892L100.654 47.2798L100.718 46.7506L100.67 46.5582L100.574 46.3978L100.301 46.3016L99.6434 46.2856L98.6652 46.494L98.3445 46.6223L98.0719 46.7987L97.639 47.3119L96.5325 49.605L95.6505 50.968L94.4479 52.6518L93.1008 54.3997L91.7859 55.9872L90.6795 57.1418L91.2567 57.4625L92.0746 58.0398L92.7962 58.7453L93.2131 59.2585L93.5819 59.8197L94.0309 60.7177L94.3196 61.6638L94.4479 62.3053L95.3298 60.4932L95.6826 60.9422L94.4799 63.1552L94.0149 63.8447L93.2772 64.7748L92.4594 65.6247L91.5775 66.4265L90.6314 67.1641L89.6532 67.8376L88.6269 68.463L87.5685 69.0403L85.4197 70.0185L86.446 74.0113L87.8411 81.0029L87.9534 81.9811L87.8411 82.1735L87.8732 82.0773L87.8411 82.0292L87.5365 82.5584L86.5102 76.6733L85.5961 72.6002L84.8745 69.9062L84.8264 69.6015L84.8585 69.2968L84.9868 69.2167L85.3396 69.4251L86.43 69.0403L88.7391 67.7895L89.9579 66.9877L91.1124 66.1057L91.9142 65.4002L92.6839 64.6304L93.3895 63.7966L94.047 62.8826L93.9507 62.2251L93.8064 61.5837L93.598 60.9743L92.9886 59.8358L92.1708 58.8255L91.6737 58.3765L91.0322 57.8954L90.3267 57.4946L89.3164 58.1841L87.4082 59.3066L86.43 59.7556L85.4358 60.1404L84.4095 60.4451L83.3672 60.6857L82.2286 60.8621L81.0099 60.9743L80.593 61.4714L80.128 61.9204L79.0696 62.642L77.883 63.1712L76.9529 63.4438L76.0068 63.6362L75.1889 63.7164L74.3551 63.7324L73.5373 63.6683L72.7355 63.5079L72.2063 63.3476L71.2121 62.8665L69.6246 64.1333L68.7586 64.9031L67.5239 66.1218L66.2891 67.4688L65.5194 68.4149L64.0762 70.3712L63.4348 71.3975L62.8735 72.4078L62.3764 73.418L61.9755 74.4604L61.6708 75.4706L61.4624 76.4488L61.3982 77.1864V77.908L61.4944 78.5815L61.8793 79.8965L62.1519 80.5379L62.6811 81.4519L63.3065 82.3499L63.8998 83.0715L64.5252 83.713L65.2147 84.3384L66.9947 85.7174Z" fill="black"/>
<path d="M67.1992 85.4289L67.9529 79.6079L68.7707 74.4604L69.2839 71.9589L69.3801 71.7344L69.5565 71.7825L69.6367 72.1032L69.6206 72.4399L69.4122 74.0916L68.5462 79.0467L67.6001 85.7175L67.2954 85.6373L67.1992 85.4289Z" fill="black"/>
<path d="M101.206 47.0874H104.413L104.782 47.4883L102.938 47.5204L101.094 47.4562L101.206 47.0874Z" fill="#191818"/>
<path d="M81.7773 51.5132L82.05 51.7537L82.3867 51.6896L82.531 52.9083V54.143L82.4188 54.0308L82.3226 53.678L82.082 53.3894L81.7773 51.5132Z" fill="black"/>
<path d="M104.422 47.0874H106.09L106.859 47.2638L106.811 47.36L106.699 47.3921L106.09 47.5043L104.791 47.4883L104.422 47.0874Z" fill="black"/>
<path d="M104.752 50.8879L106.211 50.904L106.66 51.0002L106.708 51.1766L105.714 51.3369H104.688L104.752 50.8879Z" fill="black"/>
<path d="M103.232 40.6571L103.841 41.1382L104.082 41.4589L104.226 41.8117L104.242 42.1805L103.921 42.0201L103.633 41.7956L103.408 41.507L103.184 41.042L103.232 40.6571Z" fill="black"/>
<path d="M57.6102 131.98L58.8129 132.445L60.0316 132.846L61.2663 133.183L63.1586 133.568L65.0668 133.873L68.8993 134.258L71.9942 134.498L75.0891 134.642L78.184 134.691L87.8696 134.482L87.5329 134.883L87.581 134.995L86.6349 135.107L85.4001 135.156L79.9961 135.22L76.2437 135.188L72.1225 135.043L67.9212 134.755L65.8686 134.53L63.9122 134.258L62.6454 134.033L60.3683 133.52L59.2939 133.199L58.3639 132.862L57.5781 132.51L57.6102 131.98Z" fill="#191818"/>
<path d="M101.53 130.922L101.675 131.195L101.707 131.5L101.595 131.788L101.37 132.029L101.114 132.253L100.232 132.718L99.2534 133.151L97.2329 133.841L95.6453 134.21L94.0418 134.498L92.4061 134.707L90.7865 134.851L87.5794 134.995L87.5312 134.883L87.868 134.482L93.7692 133.937L95.1643 133.712L96.5754 133.408L98.4837 132.798L100.087 132.141L100.697 131.82L101.194 131.435L100.985 131.227L100.713 131.083L101.114 131.034L101.53 130.922Z" fill="black"/>
<path d="M89.0898 128.661L90.6934 128.774L92.9545 129.03L96.8191 129.623L99.2084 130.104L100.154 130.361L101.02 130.666L101.534 130.922L100.908 131.067L100.395 131.051L98.2944 130.521L93.5798 129.655L90.7095 129.271L89.3945 129.223L89.1219 129.287L89.0898 128.661Z" fill="#191818"/>
<path d="M57.5773 132.51L57.016 132.093L56.8236 131.836L56.6953 131.499L56.7915 131.131L57.0802 130.826L57.9301 130.377L59.9185 129.72L61.3617 129.351L62.821 129.094L64.2802 128.902L67.2629 128.693L67.0544 128.966L66.894 129.287L65.6432 129.319L63.9274 129.495L62.0192 129.784L60.143 130.169L58.5555 130.65L57.7697 131.034L57.4009 131.339L57.3367 131.483L57.3688 131.66L57.6094 131.981L57.5773 132.51Z" fill="black"/>
</svg>
