<svg width="36" height="37" viewBox="0 0 36 37" fill="none" xmlns="http://www.w3.org/2000/svg">
<path d="M27.2553 35.0125C23.9435 33.1308 21.2338 29.9005 20.293 28.5206H21.0457C22.8575 30.5277 27.2004 34.6361 30.0779 35.0125C32 35.2639 33.6523 35.2494 34.7693 35.1653C35.1409 35.1373 35.3522 35.5943 35.0467 35.8077C34.8104 35.9727 34.5574 36.1264 34.3118 36.2356L34.285 36.2458C32.3274 36.9916 31.3764 37.354 27.2553 35.0125Z" fill="#68B273"/>
<path d="M23.491 2.99605C25.3142 3.51101 26.3928 5.35898 25.8344 7.36188C24.7175 11.3677 19.5783 12.3854 17.8386 12.82C16.5776 11.5379 12.7149 7.97754 13.8317 3.97174C14.3902 1.96884 16.2894 0.961964 18.0898 1.47048C19.206 1.78577 20.0307 2.63601 20.4713 3.37778C21.231 2.97503 22.3747 2.68076 23.491 2.99605Z" fill="#97D550"/>
<path d="M33.0473 1.51922C33.8928 1.83752 34.3315 2.75894 33.9863 3.6878C33.2959 5.54551 30.8141 5.82126 29.9704 5.9574C29.4225 5.29739 27.7296 3.45004 28.42 1.59233C28.7652 0.663472 29.7075 0.261938 30.5424 0.576259C31.0601 0.771138 31.4179 1.20835 31.5976 1.57851C31.9746 1.4179 32.5296 1.32434 33.0473 1.51922Z" fill="#97D550"/>
<path d="M2.43393 11.8999C2.60423 9.46967 4.62467 7.63387 7.26006 7.82095C12.5309 8.19513 15.1223 14.4085 16.1116 16.4885C14.842 18.4081 11.4097 24.1938 6.13891 23.8197C3.50352 23.6326 1.76124 21.4991 1.92941 19.0993C2.03368 17.6114 2.87858 16.353 3.68761 15.6065C2.9907 14.7531 2.32966 13.3878 2.43393 11.8999Z" fill="#15B181"/>
<path d="M5.36229 30.343C2.89043 29.1639 1.80053 26.2687 3.07915 23.5532C5.6364 18.1223 13.2 17.9297 15.7821 17.7361C17.2683 19.8702 21.9093 25.8844 19.3521 31.3154C18.0735 34.0309 15.126 35.0002 12.6851 33.8359C11.1717 33.114 10.2027 31.7017 9.75433 30.5377C8.57537 30.9255 6.87567 31.0648 5.36229 30.343Z" fill="#68B273"/>
<path d="M15.2665 17.7719C13.6071 20.2171 10.5035 24.1295 6.1397 23.8197C5.09608 23.7457 4.19252 23.3663 3.49219 22.7861C6.18915 18.3977 12.4676 17.9609 15.2665 17.7719Z" fill="#097C3A"/>
<path d="M31.1854 25.1994C33.1574 23.9408 33.7805 21.3734 32.4156 19.2071C29.6858 14.8744 23.2576 15.5059 21.0499 15.6132C20.0121 17.5774 16.7037 23.1604 19.4336 27.4931C20.7985 29.6594 23.3962 30.171 25.3435 28.9281C26.5508 28.1575 27.2254 26.8591 27.4845 25.8259C28.5236 26.0305 29.9781 25.97 31.1854 25.1994Z" fill="#A5BB34"/>
<path d="M18.5116 22.0623C18.2152 23.8672 18.3497 25.7782 19.4303 27.4933C19.6272 27.8059 19.8498 28.084 20.0925 28.3274C20.208 26.1033 19.4523 23.9163 18.5116 22.0623Z" fill="#438317"/>
</svg>
