<svg width="140" height="50" viewBox="0 0 140 50" fill="none" xmlns="http://www.w3.org/2000/svg">
<path d="M52.8196 26.8663L51.4039 33.0628H47.5049L51.2646 16.678H56.8578C58.2966 16.678 59.5035 16.8404 60.5014 17.1886C61.8939 17.6759 62.5901 18.6971 62.5901 20.2984C62.5901 21.6677 62.2884 22.8977 61.685 23.9885C61.0584 25.1025 60.1533 25.8683 58.9233 26.2629C57.7629 26.6574 56.3472 26.8663 54.6762 26.8663H52.8196ZM54.7226 18.6274L53.2605 24.9864H54.8155C55.767 24.9864 56.5561 24.824 57.1363 24.4991C57.6236 24.1974 58.0182 23.6636 58.2966 22.8745C58.5751 22.0854 58.7144 21.3196 58.7144 20.5769C58.7144 19.8807 58.5055 19.3701 58.0646 19.0684C57.67 18.7667 56.997 18.6274 56.0455 18.6274H54.7226ZM62.0498 32.1113L62.4443 30.4403C63.5583 31.0669 64.6723 31.3918 65.7631 31.3918C67.1324 31.3918 67.8286 30.9277 67.8286 30.0226C67.8286 29.4424 67.4573 28.955 66.6914 28.5372L65.6006 27.9106C64.3474 27.2144 63.7208 26.2397 63.7208 25.0096C63.7208 22.6192 65.5078 21.0643 68.8265 21.0643C70.2422 21.0643 71.3562 21.3428 72.1685 21.923L71.7739 23.594C70.8456 23.1298 69.9173 22.8977 68.9658 22.8977C67.7822 22.8977 67.202 23.3387 67.202 24.2206C67.202 24.7079 67.5037 25.0561 68.5248 25.7059L69.4532 26.3093C70.66 27.0751 71.2634 28.0035 71.2634 29.0942C71.2634 31.7864 69.5692 33.3645 66.0648 33.3645C65.3918 33.3645 64.6491 33.2485 63.8368 32.9932C63.0245 32.7611 62.4211 32.4594 62.0498 32.1113ZM70.5292 37.8204L70.8774 36.1959C71.3183 36.4047 71.7593 36.4976 72.2466 36.4976C72.9661 36.4976 73.5463 36.2655 74.0336 35.8013C74.5442 35.3372 75.0316 34.6642 75.4957 33.8055L75.7046 33.4341L73.6855 21.366H77.3988C77.7469 23.8028 78.095 26.4485 78.4432 29.3031L82.7134 21.366H85.568L78.9537 32.4826C78.0486 34.0375 77.3524 35.1515 76.8882 35.8245C76.4241 36.4744 75.9599 36.9617 75.519 37.2867C74.6603 37.9133 73.5695 38.2382 72.2466 38.2382C71.4576 38.2382 70.8774 38.0989 70.5292 37.8204ZM97.6856 30.3707L97.2447 32.2969C96.1539 33.0164 94.6918 33.3645 92.9048 33.3645C88.7274 33.3645 86.3602 31.2758 86.3602 27.284C86.3602 25.5666 86.6851 23.8957 87.3117 22.2711C87.9383 20.6697 88.8898 19.3469 90.1663 18.3025C91.7444 17.0029 93.6939 16.3531 96.0379 16.3531C97.6856 16.3531 99.0085 16.7244 100.053 17.4438L99.6119 19.3469C98.4051 18.7203 97.7553 18.5114 96.386 18.5114C94.8775 18.5114 93.6707 18.9988 92.7423 19.9967C91.2338 21.6677 90.3519 24.4759 90.3519 27.168C90.3519 29.8601 91.5355 31.2062 93.9027 31.2062C95.2488 31.2062 96.502 30.9277 97.6856 30.3707ZM99.1987 30.4867C99.1987 28.9086 99.7789 27.7714 100.916 27.0751C101.868 26.5182 103.423 26.2397 105.581 26.2397C105.883 26.2397 106.231 26.2629 106.625 26.2861L106.764 25.613C106.834 25.2649 106.881 24.9168 106.881 24.5687C106.881 24.2206 106.788 23.9421 106.625 23.6868C106.37 23.3155 105.79 23.1298 104.885 23.1298C103.655 23.1298 102.541 23.3619 101.519 23.8492L101.937 22.1086C103.098 21.4124 104.49 21.0643 106.138 21.0643C107.948 21.0643 109.201 21.4356 109.874 22.1783C110.315 22.712 110.547 23.3387 110.547 24.1045C110.547 24.6383 110.431 25.4506 110.199 26.5414L108.737 33.0628H105.302L105.534 31.8096C104.653 32.8075 103.585 33.3181 102.309 33.3181C100.359 33.3181 99.1987 32.1345 99.1987 30.4867ZM102.587 30.0922C102.587 30.9045 103.098 31.415 103.863 31.415C104.467 31.415 105.047 31.2062 105.581 30.8116L106.3 27.7018C106.161 27.6786 105.906 27.6786 105.534 27.6786C104.42 27.6786 103.655 27.8874 103.26 28.3052C102.819 28.7925 102.587 29.3727 102.587 30.0922ZM117.787 24.3134L115.814 33.0628H112.147L114.84 21.366H118.39L117.926 23.2458C118.414 22.039 119.713 21.0643 121.083 21.0643C121.64 21.0643 122.034 21.1107 122.243 21.2035L121.616 23.8957C121.175 23.6868 120.595 23.5707 119.876 23.5707C119.133 23.5707 118.182 23.9189 117.787 24.3134ZM132.773 27.5625H125.88C125.81 28.0267 125.764 28.4908 125.764 28.9318C125.787 30.5795 126.785 31.4382 128.387 31.4382C129.593 31.4382 130.731 31.2062 131.775 30.7188L131.334 32.3666C130.336 33.0164 128.874 33.3413 126.948 33.3413C123.722 33.3413 122.097 31.6935 122.097 28.9782C122.097 26.5182 122.84 24.4991 124.348 22.8977C125.486 21.6677 127.064 21.0643 129.129 21.0643C131.844 21.0643 133.214 22.2943 133.214 24.7311C133.214 25.5434 133.075 26.4717 132.773 27.5625ZM126.251 25.8451H129.918C130.127 25.0328 130.22 24.4294 130.22 23.9885C130.22 23.0602 129.802 22.596 128.967 22.596C127.737 22.596 126.832 23.6868 126.251 25.8451Z" fill="#005843"/>
<path d="M34.2573 41.659C30.9455 39.7773 28.2358 36.547 27.2949 35.1671H28.0476C29.8594 37.1742 34.2024 41.2827 37.0799 41.659C39.0019 41.9104 40.6543 41.8959 41.7712 41.8118C42.1429 41.7839 42.3541 42.2408 42.0486 42.4542C41.8124 42.6193 41.5593 42.773 41.3137 42.8821L41.2869 42.8923C39.3293 43.6382 38.3783 44.0005 34.2573 41.659Z" fill="#68B273"/>
<path d="M30.491 9.64256C32.3142 10.1575 33.3928 12.0055 32.8344 14.0084C31.7175 18.0142 26.5783 19.0319 24.8386 19.4665C23.5776 18.1844 19.7149 14.6241 20.8317 10.6183C21.3902 8.61535 23.2894 7.60848 25.0898 8.117C26.206 8.43228 27.0307 9.28253 27.4713 10.0243C28.231 9.62154 29.3747 9.32728 30.491 9.64256Z" fill="#97D550"/>
<path d="M40.0492 8.16574C40.8947 8.48404 41.3334 9.40546 40.9882 10.3343C40.2979 12.192 37.816 12.4678 36.9723 12.6039C36.4245 11.9439 34.7316 10.0966 35.4219 8.23884C35.7671 7.30999 36.7095 6.90845 37.5444 7.22277C38.0621 7.41765 38.4199 7.85487 38.5996 8.22503C38.9765 8.06442 39.5316 7.97086 40.0492 8.16574Z" fill="#97D550"/>
<path d="M9.43588 18.5464C9.60618 16.1162 11.6266 14.2804 14.262 14.4675C19.5328 14.8416 22.1243 21.055 23.1136 23.135C21.844 25.0547 18.4117 30.8404 13.1409 30.4662C10.5055 30.2791 8.76319 28.1456 8.93136 25.7458C9.03563 24.2579 9.88053 22.9995 10.6896 22.253C9.99265 21.3996 9.33161 20.0343 9.43588 18.5464Z" fill="#15B181"/>
<path d="M12.3623 36.9895C9.89043 35.8104 8.80053 32.9152 10.0792 30.1998C12.6364 24.7688 20.2 24.5762 22.7821 24.3827C24.2683 26.5167 28.9093 32.5309 26.3521 37.9619C25.0735 40.6774 22.126 41.6468 19.6851 40.4824C18.1717 39.7606 17.2027 38.3482 16.7543 37.1842C15.5754 37.572 13.8757 37.7113 12.3623 36.9895Z" fill="#68B273"/>
<path d="M22.2684 24.4185C20.609 26.8636 17.5054 30.776 13.1416 30.4663C12.098 30.3922 11.1945 30.0129 10.4941 29.4327C13.1911 25.0442 19.4695 24.6074 22.2684 24.4185Z" fill="#097C3A"/>
<path d="M38.1854 31.8459C40.1574 30.5873 40.7805 28.0199 39.4156 25.8536C36.6858 21.5209 30.2576 22.1524 28.0499 22.2597C27.0121 24.2239 23.7037 29.8069 26.4336 34.1396C27.7985 36.3059 30.3962 36.8176 32.3435 35.5746C33.5508 34.804 34.2254 33.5056 34.4845 32.4724C35.5236 32.677 36.9781 32.6165 38.1854 31.8459Z" fill="#A5BB34"/>
<path d="M25.5135 28.7088C25.2172 30.5137 25.3516 32.4247 26.4322 34.1398C26.6292 34.4524 26.8518 34.7305 27.0944 34.9739C27.2099 32.7498 26.4542 30.5628 25.5135 28.7088Z" fill="#438317"/>
</svg>
