<svg width="25" height="24" viewBox="0 0 25 24" fill="none" xmlns="http://www.w3.org/2000/svg">
<path d="M9.28516 10.7063C9.28516 12.2447 9.89631 13.7202 10.9842 14.808C12.072 15.8959 13.5475 16.507 15.0859 16.507C16.6244 16.507 18.0999 15.8959 19.1877 14.808C20.2756 13.7202 20.8867 12.2447 20.8867 10.7063C20.8867 9.16779 20.2756 7.69234 19.1877 6.60448C18.0999 5.51662 16.6244 4.90547 15.0859 4.90547C13.5475 4.90547 12.072 5.51662 10.9842 6.60448C9.89631 7.69234 9.28516 9.16779 9.28516 10.7063Z" fill="#FFCE00"/>
<path d="M12.0594 17.5641C10.1258 17.5641 8.30703 16.8117 6.93828 15.443C5.56953 14.0742 4.81719 12.2578 4.81719 10.3219C4.81719 8.38594 5.56953 6.56953 6.93828 5.20078C8.30703 3.83203 10.1234 3.07969 12.0594 3.07969C13.9953 3.07969 15.8117 3.83203 17.1805 5.20078C18.5492 6.56953 19.3016 8.38594 19.3016 10.3219C19.3016 12.2578 18.5469 14.0742 17.1781 15.443C15.8094 16.8117 13.993 17.5641 12.0594 17.5641ZM12.0594 5.19141C10.6883 5.19141 9.39922 5.72578 8.43125 6.69375C7.46094 7.66406 6.92891 8.95078 6.92891 10.3219C6.92891 11.693 7.46328 12.982 8.43125 13.95C9.39922 14.918 10.6883 15.4523 12.0594 15.4523C13.4305 15.4523 14.7195 14.918 15.6875 13.95C16.6555 12.982 17.1898 11.693 17.1898 10.3219C17.1898 8.95078 16.6555 7.66172 15.6875 6.69375C14.7172 5.72344 13.4305 5.19141 12.0594 5.19141ZM19.6719 20.918H5.32812C4.74453 20.918 4.27344 20.4469 4.27344 19.8633C4.27344 19.2797 4.74453 18.8086 5.32812 18.8086H19.6719C20.2555 18.8086 20.7266 19.2797 20.7266 19.8633C20.7266 20.4469 20.2555 20.918 19.6719 20.918Z" fill="#1A1A1A"/>
</svg>
